<?xml version="1.0" encoding="UTF-8" standalone="no"?>
<svg
   xmlns:dc="http://purl.org/dc/elements/1.1/"
   xmlns:cc="http://creativecommons.org/ns#"
   xmlns:rdf="http://www.w3.org/1999/02/22-rdf-syntax-ns#"
   xmlns:svg="http://www.w3.org/2000/svg"
   xmlns="http://www.w3.org/2000/svg"
   xmlns:sodipodi="http://sodipodi.sourceforge.net/DTD/sodipodi-0.dtd"
   xmlns:inkscape="http://www.inkscape.org/namespaces/inkscape"
   viewBox="0 0 1466.6667 1066.6667"
   height="1066.6667"
   width="1466.6667"
   xml:space="preserve"
   id="svg2"
   version="1.1"
   sodipodi:docname="personas-2.svg"
   inkscape:version="0.92.3 (2405546, 2018-03-11)"><sodipodi:namedview
     pagecolor="#ffffff"
     bordercolor="#666666"
     borderopacity="1"
     objecttolerance="10"
     gridtolerance="10"
     guidetolerance="10"
     inkscape:pageopacity="0"
     inkscape:pageshadow="2"
     inkscape:window-width="1366"
     inkscape:window-height="710"
     id="namedview80"
     showgrid="false"
     inkscape:zoom="0.22124998"
     inkscape:cx="733.33337"
     inkscape:cy="533.33337"
     inkscape:window-x="0"
     inkscape:window-y="27"
     inkscape:window-maximized="1"
     inkscape:current-layer="svg2" /><metadata
     id="metadata8"><rdf:RDF><cc:Work
         rdf:about=""><dc:format>image/svg+xml</dc:format><dc:type
           rdf:resource="http://purl.org/dc/dcmitype/StillImage" /></cc:Work></rdf:RDF></metadata><defs
     id="defs6" /><g
     id="g301"><path
       inkscape:connector-curvature="0"
       d="m 376.98666,961.30164 c -52.74267,0 -105.15333,-3.76987 -158.764,-19.35787 -36.39466,-10.5824 -130.592396,-28.62373 -54.86133,-72.25173 70.85866,-40.82133 152.73733,-21.92933 227.79866,-38.04533 43.44933,-9.328 87.36933,-12.07334 131.464,-12.07334 31.57733,0 63.25066,1.40934 94.87733,2.81734 10.97466,0.48933 21.94533,0.97866 32.90666,1.40933 l -3.86,29.856 144.328,1.6 -3.30133,-30.912 c 27.00666,-0.39333 53.98933,-0.95867 80.97066,-0.95867 31.30667,0 62.60533,0.76134 93.88533,3.43334 14.05067,1.20133 27.97867,0.152 41.86266,3.28933 13.9373,3.14933 28.0027,6.00533 42.244,6.39733 6.968,0.19067 13.944,0.27067 20.9293,0.27067 26.9534,0 54.004,-1.184 80.8947,-1.67867 5.1427,-0.0947 15.0893,-0.292 28.0213,-0.292 63.1734,0 197.2707,4.71867 187.0707,49.20133 -4.3867,19.11467 -31.1147,44.296 -46.1933,52.4944 -19.0467,10.35774 -39.948,16.62547 -61.0454,18.93907 -18.9773,2.0828 -37.4453,4.3 -56.2506,4.3 -6.0894,0 -12.2174,-0.23333 -18.4054,-0.7776 -28.2466,-2.48653 -56.8573,-3.51987 -84.98,-7.24533 -46.896,-6.2104 -93.7306,-7.71454 -140.72529,-7.71454 -17.68533,0 -35.40133,0.21347 -53.14133,0.46814 -63.26667,0.912 -126.576,0.2292 -189.63466,5.78226 -67.12134,5.91094 -134.44,7.0428 -201.75467,7.85107 -45.64266,0.54893 -90.10399,3.19747 -134.33599,3.19747"
       style="fill:#f7eaea;fill-opacity:1;fill-rule:nonzero;stroke:none;stroke-width:0.13333333"
       id="path16" /><path
       inkscape:connector-curvature="0"
       d="m 669.13865,214.09205 c 3.46667,-2.45333 7.59333,-3.12266 11.59733,-3.71466 20.284,-2.99067 40.64667,-5.22267 61.04933,-6.69067 31.236,-2.24933 63.516,-2.516 92.64667,11.07867 4.8,2.24 10.35867,6.784 9.196,12.75866 -0.96933,4.984 -5.97333,6.91467 -10.2,7.86134 -41.28133,9.24533 -83.65733,7.80133 -125.644,6.32266 -7.61333,-0.268 -63.61733,-9.94133 -38.64533,-27.616"
       style="fill:#d67086;fill-opacity:1;fill-rule:nonzero;stroke:none;stroke-width:0.13333333"
       id="path18" /><path
       inkscape:connector-curvature="0"
       d="m 790.87598,855.25604 -144.328,-1.6 14.264,-110.31333 118.24933,1.31066 11.81467,110.60267"
       style="fill:#d1d3d4;fill-opacity:1;fill-rule:nonzero;stroke:none;stroke-width:0.13333333"
       id="path20" /><path
       inkscape:connector-curvature="0"
       d="m 656.85998,773.90537 -0.15733,-0.0333 h 0.16133 l -0.004,0.0333"
       style="fill:#ccb7b7;fill-opacity:1;fill-rule:nonzero;stroke:none;stroke-width:0.13333333"
       id="path22" /><path
       inkscape:connector-curvature="0"
       d="m 785.08265,801.03471 -128.22267,-27.12934 0.004,-0.0333 h 125.31733 l 2.90134,27.16267"
       style="fill:#b3b5b6;fill-opacity:1;fill-rule:nonzero;stroke:none;stroke-width:0.13333333"
       id="path24" /><path
       inkscape:connector-curvature="0"
       d="m 339.19466,230.23872 v 533.44932 c 0,5.624 4.56,10.184 10.18533,10.184 H 1089.268 c 5.6253,0 10.1866,-4.56 10.1866,-10.184 V 230.23872 c 0,-5.39733 -4.376,-9.772 -9.772,-9.772 H 348.96532 c -5.396,0 -9.77066,4.37467 -9.77066,9.772"
       style="fill:#d1d3d4;fill-opacity:1;fill-rule:nonzero;stroke:none;stroke-width:0.13333333"
       id="path26" /><path
       inkscape:connector-curvature="0"
       d="M 339.19466,228.69872 V 705.42138 H 1099.4546 V 228.69872 c 0,-5.00933 -4.0613,-9.07067 -9.0706,-9.07067 H 348.26399 c -5.00933,0 -9.06933,4.06134 -9.06933,9.07067"
       style="fill:#1d2b56;fill-opacity:1;fill-rule:nonzero;stroke:none;stroke-width:0.13333333"
       id="path28" /><path
       inkscape:connector-curvature="0"
       d="M 359.23599,679.57604 H 1079.4106 V 241.83072 H 359.23599 Z"
       style="fill:#ffffff;fill-opacity:1;fill-rule:nonzero;stroke:none;stroke-width:0.13333333"
       id="path30" /><path
       inkscape:connector-curvature="0"
       d="m 833.38398,879.8547 h -228.12 v -39.79066 h 228.12 v 39.79066"
       style="fill:#d1d3d4;fill-opacity:1;fill-rule:nonzero;stroke:none;stroke-width:0.13333333"
       id="path32" /><path
       inkscape:connector-curvature="0"
       d="M 1078.772,279.00939 H 358.65199 V 241.83072 H 1078.772 v 37.17867"
       style="fill:#d1d3d4;fill-opacity:1;fill-rule:nonzero;stroke:none;stroke-width:0.13333333"
       id="path34" /><path
       inkscape:connector-curvature="0"
       d="M 1061.892,269.52139 H 835.58398 V 251.31872 H 1061.892 v 18.20267"
       style="fill:#ffffff;fill-opacity:1;fill-rule:nonzero;stroke:none;stroke-width:0.13333333"
       id="path36" /><path
       inkscape:connector-curvature="0"
       d="m 1043.3466,258.63072 h 11.4107 l -5.7053,4.82533 z"
       style="fill:#cccccc;fill-opacity:1;fill-rule:nonzero;stroke:none;stroke-width:0.13333333"
       id="path38" /><path
       inkscape:connector-curvature="0"
       d="m 1035.74,267.86139 h -1.088 v -15.21467 h 1.088 v 15.21467"
       style="fill:#cccccc;fill-opacity:1;fill-rule:nonzero;stroke:none;stroke-width:0.13333333"
       id="path40" /><path
       inkscape:connector-curvature="0"
       d="m 402.64266,261.04272 c 0,6.71467 -5.44267,12.15733 -12.15734,12.15733 -6.71466,0 -12.15733,-5.44266 -12.15733,-12.15733 0,-6.71467 5.44267,-12.15733 12.15733,-12.15733 6.71467,0 12.15734,5.44266 12.15734,12.15733"
       style="fill:#8cabef;fill-opacity:1;fill-rule:nonzero;stroke:none;stroke-width:0.13333333"
       id="path42" /><path
       inkscape:connector-curvature="0"
       d="m 350.95466,836.25604 8.28133,7.25333 -7.26933,27.82267 h -8.75467 l -5.14933,-20.37467 6.82,-16.032 6.072,1.33067"
       style="fill:#2b2b2b;fill-opacity:1;fill-rule:nonzero;stroke:none;stroke-width:0.13333333"
       id="path44" /><path
       inkscape:connector-curvature="0"
       d="m 247.54133,585.78405 60.32933,11.29066 -34.60933,121.296 73.13599,117.70533 -8.33466,14.88133 -105.01067,-111.58533 -9.48933,-27.67333 6.59067,-111.90666 17.388,-14.008"
       style="fill:#3b3387;fill-opacity:1;fill-rule:nonzero;stroke:none;stroke-width:0.13333333"
       id="path46" /><path
       inkscape:connector-curvature="0"
       d="m 353.58266,585.77605 -15.92534,112.19733 -19.62533,169.61732 -20.29333,-1.63866 -10.04267,-171.28666 6.232,-108.256 59.65467,-0.63333"
       style="fill:#3b3387;fill-opacity:1;fill-rule:nonzero;stroke:none;stroke-width:0.13333333"
       id="path48" /><path
       inkscape:connector-curvature="0"
       d="m 206.43333,616.62404 c -1.272,4.98134 -2.64267,9.93867 -4.112,14.86667 -0.31334,1.05067 -0.62667,2.20667 -0.19334,3.21333 0.368,0.85334 1.19067,1.40534 1.988,1.88 9.93867,5.92534 22.496,7.25334 33.45467,3.53867 5.4,-1.83067 10.38,-4.80133 15.86,-6.37867 9.192,-2.64666 18.81733,-1.224 28.18533,-0.70133 9.29067,0.52 17.392,-1.84533 26.31334,-2.57733 21.872,-1.79867 27.71999,-2.88934 48.53199,3.65466 0,-39.39466 8.052,-69.68933 2.06134,-106.75199 -5.91467,-36.58267 -11.828,-73.168 -17.74267,-109.752 -0.99867,-6.172 -2.03467,-12.47333 -4.58267,-17.90667 -11.52533,-24.568 -38.64533,-29.256 -62.72533,-22.23333 -12.25066,3.57467 -22.008,17.39467 -28.028,28.13733 -7.69466,13.72934 -11.932,29.188 -14.97733,44.536 -9.528,48.024 -9.83867,97.51067 -19.30533,145.54533 -1.38267,7.01867 -2.96,13.99733 -4.728,20.92933"
       style="fill:#8cabef;fill-opacity:1;fill-rule:nonzero;stroke:none;stroke-width:0.13333333"
       id="path50" /><path
       inkscape:connector-curvature="0"
       d="m 288.01066,382.63205 c 0.208,0.48533 0.49733,0.956 0.89867,1.41333 1.58133,1.804 3.87066,2.92534 6.188,3.42934 3.05466,0.664 6.228,0.37866 9.332,0.0147 4.19466,-0.48933 4.22266,-2.92266 5.09333,-6.63466 0.94933,-4.048 1.428,-8.18934 1.92267,-12.31067 6.00533,-0.49333 13.136,-1.80533 15.73733,-7.94133 0.81867,-1.93334 1.04,-4.096 1.24933,-6.21334 0.86667,-8.75333 1.73334,-17.504 2.59867,-26.25599 0.3,-3.02667 0.59333,-6.148 -0.16533,-9.05067 -1.32934,-5.09733 -5.58934,-8.452 -9.86134,-10.71067 -10.90133,-5.76133 -24.13066,-6.78666 -35.208,-1.032 -2.94933,1.53067 -5.788,3.58667 -7.67733,6.56134 -2.91467,4.58266 -3.148,10.55066 -3.27467,16.13733 -0.11466,5.156 -0.23066,10.31333 -0.34666,15.46933 -0.13334,5.93067 0.112,12.79467 4.308,16.31867 2.228,1.87066 5.276,2.45733 7.13066,4.784 2.324,2.91466 1.86534,7.004 1.72,10.476 -0.0827,1.98666 -0.36666,3.84933 0.35467,5.54533"
       style="fill:#efbfa5;fill-opacity:1;fill-rule:nonzero;stroke:none;stroke-width:0.13333333"
       id="path52" /><path
       inkscape:connector-curvature="0"
       d="m 321.66533,317.79072 c 0.244,0.50267 0.44133,1.01867 0.584,1.552 0.74666,2.79333 -0.112,5.82133 0.612,8.62 1.148,4.436 6.01333,7.40266 6.44933,11.96533 0.35733,3.73067 -2.41333,7.052 -2.89467,10.768 -0.52666,4.06133 1.80534,8.108 1.11067,12.104 -0.60533,3.46933 -3.17733,8.224 -5.46667,10.87333 0.71067,-0.82 6.54,-0.0907 8.124,-0.908 2.42934,-1.252 2.75867,-2.12933 3.62533,-4.50266 0.86134,-2.356 0.5,-4.76667 1.748,-7.15467 1.532,-2.92933 4.392,-4.95467 5.57067,-8.112 1.60667,-4.308 -0.4,-9.12 0.11333,-13.69067 0.77734,-6.91599 7.244,-13.01733 5.544,-19.76799 -0.99733,-3.95867 -4.57466,-6.70134 -6.43466,-10.33734 -1.41334,-2.75866 -1.78,-5.91866 -2.684,-8.884 -0.904,-2.96533 -2.60934,-5.99066 -5.51067,-7.08 -1.61333,-0.604 -3.4,-0.53466 -5.06666,-0.97066 -2.88,-0.75334 -5.16134,-2.94267 -7.90534,-4.09734 -3.92666,-1.652 -11.32,1.90534 -13.91466,5.14534 -2.57467,3.21733 -1.60667,6.18133 0.56133,9.34666 3.60933,5.27067 12.96667,9.22534 15.83467,15.13067"
       style="fill:#2b2b2b;fill-opacity:1;fill-rule:nonzero;stroke:none;stroke-width:0.13333333"
       id="path54" /><path
       inkscape:connector-curvature="0"
       d="m 265.70933,293.65872 c -2.54,1.59467 -5.60934,2.65733 -7.96134,4.56667 -4.584,3.72133 -5.86666,10.10933 -6.44666,15.98666 -0.516,5.232 -3.14534,9.724 -2.972,15.228 0.116,3.69734 1.40933,7.52133 4.23866,9.90267 3.524,2.96533 9.32934,3.83066 10.68,8.23466 1.46534,4.78267 -3.77733,10.296 -1.14266,14.54934 1.452,2.34666 4.59333,2.90133 6.79466,4.56666 2.45734,1.85867 3.56534,4.94134 4.948,7.692 1.384,2.75067 3.55734,5.564 6.624,5.852 0.46,-4.66133 0.86534,-8.35333 -0.82133,-12.76933 -0.98267,-2.572 -4.07333,-7.41067 -1.25067,-9.916 1.82,-2.12 5.78534,-2.56667 6.08667,-5.344 0.14267,-1.30267 -0.68933,-2.48267 -1.33067,-3.628 -2.48266,-4.42933 -2.35866,-10.08533 -0.13066,-14.648 2.228,-4.56266 6.392,-8.03466 11.11066,-9.91333 5.52934,-2.20267 4.76267,-3.56933 6.684,-8.572 1.768,-4.604 4.51867,-5.51467 8.88,-6.924 3.91467,-1.26667 5.208,-2.13867 6.868,-5.59733 1.21467,-2.53067 2.70667,-5.56134 1.42534,-8.576 -1.01734,-2.396 -3.02934,-4.204 -4.98134,-5.92667 -4.076,-3.6 -8.67466,-7.408 -14.112,-7.408 -3.02,0 -5.94933,1.20667 -8.96933,1.16133 -2.01467,-0.032 -3.97733,-0.62 -5.98133,-0.832 -3.416,-0.36133 -7.10134,0.41867 -10.02134,2.25734 -2.944,1.85466 -3.02,4.012 -4.78533,6.81733 -0.864,1.376 -2.072,2.38533 -3.43333,3.24"
       style="fill:#2b2b2b;fill-opacity:1;fill-rule:nonzero;stroke:none;stroke-width:0.13333333"
       id="path56" /><path
       inkscape:connector-curvature="0"
       d="m 279.20799,275.32805 c 0.76134,-3.21733 0.72934,-7.48133 -2.29866,-8.80533 -1.66,-0.724 -3.616,-0.204 -5.36,-0.69067 -3.716,-1.04 -4.67067,-5.7 -6.41067,-9.144 -0.26,-0.516 -0.57733,-1.04266 -1.08533,-1.316 -0.72934,-0.38933 -1.61334,-0.15333 -2.44,-0.11333 -3.78534,0.188 -6.37067,-3.72267 -9.80934,-5.32 -4.25466,-1.97867 -9.95866,0.36 -11.6,4.756 -0.67466,1.80667 -0.724,3.796 -1.36533,5.61333 -2.60267,7.36667 -13.83867,9.77067 -14.67733,17.53734 -0.568,5.24666 4.21733,10.66133 1.864,15.38666 -1.504,3.02134 -5.664,4.85467 -5.44667,8.22534 0.14,2.16666 2.32,3.79333 4.488,3.91733 2.168,0.12667 4.24267,-0.91733 5.97733,-2.22533 2.75334,-2.07334 4.91467,-4.836 7.55467,-7.052 2.64,-2.21734 6.06933,-3.92134 9.45067,-3.24934 3.27466,0.65067 6.08,3.43867 9.40266,3.12534 2.65867,-0.25067 4.77867,-2.45334 7.40667,-2.928 2.45867,-0.444 4.9,0.68666 7.37733,1.016 2.47734,0.32933 5.62534,-0.74534 5.872,-3.232 0.0587,-0.60134 -0.0653,-1.23867 0.16667,-1.79867 0.64667,-1.56667 3.38267,-1.27733 4.02,-2.848 -1.15467,-2.09733 -3.03733,-1.51067 -3.78,-4.19333 -0.57333,-2.07334 0.216,-4.64134 0.69333,-6.66134"
       style="fill:#2b2b2b;fill-opacity:1;fill-rule:nonzero;stroke:none;stroke-width:0.13333333"
       id="path58" /><path
       inkscape:connector-curvature="0"
       d="m 1278.68,829.36804 c -2.5974,3.05467 -5.1974,6.10933 -7.7947,9.164 -9.968,-7.688 -19.4493,-16.51733 -28.1613,-26.224 5.2173,-2.532 8.8533,-9.836 15.6333,-4.19733 2.1947,1.824 19.8093,21.86133 20.3227,21.25733"
       style="fill:#efbfa5;fill-opacity:1;fill-rule:nonzero;stroke:none;stroke-width:0.13333333"
       id="path60" /><path
       inkscape:connector-curvature="0"
       d="m 1264.7786,834.78671 c -1.2586,1.59333 -1.8613,3.832 -1.6493,6.128 0.1227,1.332 0.5093,2.696 0.3947,3.99066 -0.112,1.27067 -0.696,2.34667 -1.2667,3.38534 -3.0053,5.46533 -13.5,19.77733 1.1107,20.05199 13.2693,0.24934 21.768,-21.74266 26.276,-32.64799 0.2973,-0.71734 0.5933,-1.48534 0.4786,-2.328 -0.1213,-0.90134 -0.6893,-1.716 -1.244,-2.46 -3.088,-4.15067 -7.7173,-10.54934 -12.1093,-6.19067 -1.8733,1.86 -2.4667,5.03067 -4.588,6.888 -1.7387,1.52267 -6.2707,1.74933 -7.4027,3.18267"
       style="fill:#4d4d4d;fill-opacity:1;fill-rule:nonzero;stroke:none;stroke-width:0.13333333"
       id="path62" /><path
       inkscape:connector-curvature="0"
       d="m 1236.2466,588.10538 c 2.536,17.26533 -0.6466,34.16933 -2.3493,51.08666 -1.9133,19.00534 -0.041,35.168 3.74,54.056 4.136,20.66267 8.6587,41.27867 14.4427,61.55733 6.0253,21.12934 14.932,37.91467 25.0706,57.104 0.86,1.62667 1.7494,3.37467 1.684,5.20934 -0.236,6.56133 -28.7693,24.63866 -30.6186,20.86933 -15.6987,-32.03067 -40.8934,-64.20133 -54.4347,-97.304 -23.5733,-57.628 -43.8227,-116.74 -60.5653,-176.85066 -2.3894,-8.58133 -4.5827,-18.41733 -0.328,-25.7 3.2626,-5.58667 9.464,-8.04133 15.3333,-9.88667 15.7027,-4.93866 44.04,-15.71466 59.7587,-5.24666 17.1826,11.44 25.424,45.76 28.2666,65.10533"
       style="fill:#424dc1;fill-opacity:1;fill-rule:nonzero;stroke:none;stroke-width:0.13333333"
       id="path64" /><path
       inkscape:connector-curvature="0"
       d="m 1150.688,865.24404 c -3.8494,-0.0773 -7.6974,-0.15467 -11.5467,-0.23067 -1.388,-13.13066 -1.6627,-26.62 -0.8187,-40.072 5.2467,2.536 12.72,0.64134 13.3827,9.84134 0.2147,2.97866 -1.7787,30.44666 -1.0173,30.46133"
       style="fill:#efbfa5;fill-opacity:1;fill-rule:nonzero;stroke:none;stroke-width:0.13333333"
       id="path66" /><path
       inkscape:connector-curvature="0"
       d="m 1137.6266,857.60671 c -1.944,0.0373 -3.8893,1.032 -5.3306,2.72133 -0.836,0.98133 -1.5174,2.19467 -2.4867,2.95867 -0.9493,0.748 -2.0827,0.99066 -3.1813,1.21733 -5.784,1.188 -22.6894,2.184 -13.076,14.15733 8.7306,10.87333 29.5893,3.18933 40.132,-0.384 0.692,-0.236 1.4213,-0.504 1.9253,-1.15333 0.5387,-0.696 0.72,-1.692 0.8627,-2.63334 0.7866,-5.23733 2.0933,-13.20266 -3.8587,-13.86533 -2.5387,-0.28266 -5.1227,1.336 -7.8267,0.85067 -2.2146,-0.396 -5.412,-3.90267 -7.16,-3.86933"
       style="fill:#4d4d4d;fill-opacity:1;fill-rule:nonzero;stroke:none;stroke-width:0.13333333"
       id="path68" /><path
       inkscape:connector-curvature="0"
       d="m 1209.1413,610.55471 c -4.664,25.19867 -19.84,44.656 -26.8947,69.16667 -13.6386,47.38 -16.5213,101.67333 -23.1653,150.83866 -0.5093,3.77067 -0.4507,17.3 -0.4507,17.3 0,0 -18.084,3.63333 -29.0093,1.41733 -11.972,-97.94933 -15.0587,-197.39333 -9.1987,-296.28399 0.532,-8.96667 1.6534,-19.06267 7.9934,-24.57067 4.8613,-4.22533 11.4653,-4.488 17.5613,-4.28133 16.312,0.55333 46.3507,-0.22533 57.7027,14.99467 12.4066,16.636 9.0466,52.05733 5.4613,71.41866"
       style="fill:#424dc1;fill-opacity:1;fill-rule:nonzero;stroke:none;stroke-width:0.13333333"
       id="path70" /><path
       inkscape:connector-curvature="0"
       d="m 1142.744,396.44538 c 6.064,-0.78266 12.1306,-1.56666 18.196,-2.35066 -0.085,-4.876 -0.5614,-9.74534 -1.4214,-14.54667 5.016,-1.93333 10.796,-4.78133 11.5227,-10.10933 0.2293,-1.67734 -0.1107,-3.37467 -0.448,-5.03467 -1.3973,-6.86133 -2.792,-13.72133 -4.188,-20.58267 -0.484,-2.37333 -0.9947,-4.81466 -2.3533,-6.82 -2.3814,-3.51866 -6.8467,-4.95599 -11.052,-5.55866 -10.7347,-1.536 -22.3027,1.12267 -30.3747,8.36133 -2.1493,1.928 -4.0747,4.22267 -4.9653,6.96933 -1.3734,4.232 -0.116,8.81734 1.1413,13.08534 1.16,3.94133 2.32,7.88133 3.4813,11.82 1.3347,4.53066 3.22,9.672 7.6707,11.25333 2.3627,0.84 5.1133,0.492 7.2693,1.77467 3.8014,2.26266 3.4627,7.824 5.5214,11.73866"
       style="fill:#b97262;fill-opacity:1;fill-rule:nonzero;stroke:none;stroke-width:0.13333333"
       id="path72" /><path
       inkscape:connector-curvature="0"
       d="m 1079.0706,329.50005 c -1.1,-1.692 -2.28,-3.32 -3.5906,-4.84133 -2.8387,-3.29467 -6.2987,-6.088 -8.6134,-9.76933 -2.3146,-3.68267 -3.24,-8.73867 -0.6986,-12.26667 1.64,-2.27867 4.376,-3.47467 7.044,-4.34533 8.7893,-2.872 18.356,-3.33334 27.3813,-1.31867 8.5973,1.91733 16.34,5.28933 24.8333,1.82533 7.9827,-3.25333 13.8467,-2.19866 22.372,0.56134 9.224,2.98533 21.5,3.39066 29.8974,7.74266 3.5066,1.81867 6.3493,4.736 8.5933,7.988 7.776,11.26134 8.2867,27.09333 1.2533,38.83333 -1.5773,2.63334 -3.488,5.056 -5.5013,7.37334 -4.168,4.79733 -9.1467,10.71866 -15.0187,12.62533 -0.2986,-5.296 4.032,-22.14933 -0.1653,-26.37067 -6.6627,-6.7 -21.1947,-3.86266 -29.1573,-1.928 -8.6827,2.10934 -16.2894,8.52934 -24.9147,10.10934 -6.2053,1.136 -14.2547,-1.68534 -19.6507,-4.74934 -6.6613,-3.78666 -10.0506,-15.29733 -14.064,-21.46933"
       style="fill:#1d2b56;fill-opacity:1;fill-rule:nonzero;stroke:none;stroke-width:0.13333333"
       id="path74" /><path
       inkscape:connector-curvature="0"
       d="m 1181.2506,389.11738 c 12.228,6.47867 21.6987,18.23734 27.968,30.61467 25.0974,49.548 37.3174,104.44533 49.1107,158.71866 3.8267,17.612 8.3587,36.5 21.9453,48.34133 -12.0293,2.23467 -24.6613,3.90267 -36.324,0.20134 -7.6213,-2.41867 -14.348,-6.98934 -21.5586,-10.44667 -18.06,-8.65733 -38.896,-10.128 -58.768,-7.63333 -19.872,2.492 -39.0534,8.73733 -58.0934,14.94933 -1.8906,-14.73333 -2.3946,-27.75866 -1.572,-42.544 2.3254,-41.82 19.0627,-81.60133 19.1747,-123.67733 0.04,-14.83333 -2.012,-29.89466 1.2733,-44.35733 4.104,-18.06267 19.3707,-29.96667 37.9027,-29.316 6.888,0.24 13.2173,2.116 18.9413,5.14933"
       style="fill:#2f3789;fill-opacity:1;fill-rule:nonzero;stroke:none;stroke-width:0.13333333"
       id="path76" /><path
       inkscape:connector-curvature="0"
       d="M 779.59065,644.48938 H 1026.2 V 322.93872 H 779.59065 Z"
       style="fill:#8cabef;fill-opacity:1;fill-rule:nonzero;stroke:none;stroke-width:0.13333333"
       id="path78" /><path
       inkscape:connector-curvature="0"
       d="m 283.72399,547.12538 c 1.01067,0.404 2.108,0.612 3.17334,0.8 3.68266,0.65467 7.444,0.9 11.17466,1.06933 2.69734,0.124 5.39734,0.17867 8.09734,0.17867 12.492,0 22.68133,-1.212 23.44133,-2.74133 l 0.0413,-0.42934 v 0.12134 l 0.032,-0.324 v -53.08534 c 0,-0.5 0.0747,-1.016 -0.128,-1.424 -0.0867,-0.176 -0.22533,-0.332 -0.44266,-0.45866 -0.24534,-0.14267 -0.512,-0.248 -0.77867,-0.34134 -2.65733,-0.948 -5.656,-1.15333 -8.44133,-1.404 -4.56,-0.40933 -9.14667,-0.55066 -13.724,-0.55066 -4.58,0 -9.168,0.14133 -13.72934,0.55066 -2.78533,0.25067 -5.78533,0.456 -8.44133,1.40534 -0.77467,0.276 -1.64933,0.656 -1.59333,1.572 0.0133,0.21066 0,0.42666 0,0.63733 v 52.19333 c 0,0.73734 -0.10267,1.26534 0.49866,1.784 0.23467,0.20267 0.536,0.332 0.82,0.44667"
       style="fill:#d67086;fill-opacity:1;fill-rule:nonzero;stroke:none;stroke-width:0.13333333"
       id="path80" /><path
       inkscape:connector-curvature="0"
       d="m 298.55733,874.9307 -3.00534,13.76934 14.32934,1.49066 7.37733,-13.02266 0.77333,-9.57734 -19.98133,-4.04533 0.50667,11.38533"
       style="fill:#2b2b2b;fill-opacity:1;fill-rule:nonzero;stroke:none;stroke-width:0.13333333"
       id="path82" /><path
       inkscape:connector-curvature="0"
       d="m 329.27866,491.76538 c 0,1.56533 -10.4,2.83333 -23.228,2.83333 -12.82933,0 -23.22933,-1.268 -23.22933,-2.83333 0,-1.564 10.4,-2.832 23.22933,-2.832 12.828,0 23.228,1.268 23.228,2.832"
       style="fill:#d67086;fill-opacity:1;fill-rule:nonzero;stroke:none;stroke-width:0.13333333"
       id="path84" /><path
       inkscape:connector-curvature="0"
       d="m 305.26933,489.99071 c -10.86134,0 -19.756,1.16934 -20.44534,2.92667 2.60667,0.87467 10.91467,1.68133 21.06534,1.68133 8.75733,0 16.368,-0.35333 19.824,-1.324 l 0.93733,-0.19866 c 0,-1.86 -10.072,-3.08534 -21.38133,-3.08534"
       style="fill:#ffffff;fill-opacity:1;fill-rule:nonzero;stroke:none;stroke-width:0.13333333"
       id="path86" /><path
       inkscape:connector-curvature="0"
       d="m 289.73733,505.42271 c -5.00267,-4.676 -11.50267,-7.76266 -17.95334,-5.20666 -5.15333,2.04133 -8.8,7.28 -9.50666,12.88933 -1.496,11.84 12.568,21.58667 22.10133,17.10133 2.76267,-1.29866 0.804,-5.696 -1.98,-4.356 -7.052,3.39334 -16.50267,-5.372 -14.18533,-12.964 2.724,-8.93066 11.51866,-9.232 17.868,-3.45866 2.53733,2.308 6.216,-1.60934 3.656,-4.00534"
       style="fill:#d67086;fill-opacity:1;fill-rule:nonzero;stroke:none;stroke-width:0.13333333"
       id="path88" /><path
       inkscape:connector-curvature="0"
       d="m 303.58399,452.82538 c 2.096,0.12267 2.088,-3.13866 0,-3.26 -5.044,-0.29333 -9.63733,2.68667 -10.22266,8.00134 -0.28134,2.54666 0.53733,4.784 1.97733,6.85333 2.644,3.8 9.42533,8.15733 2.88,12.77866 -1.70133,1.20134 -0.0747,4.02934 1.644,2.816 3.084,-2.17733 4.90933,-5.56133 4.05467,-9.41466 -0.43067,-1.932 -1.55867,-3.336 -2.85334,-4.77467 -1.22,-1.356 -3.18933,-2.61066 -3.78133,-4.39466 -1.564,-4.71867 1.24667,-8.89867 6.30133,-8.60534"
       style="fill:#ffffff;fill-opacity:1;fill-rule:nonzero;stroke:none;stroke-width:0.13333333"
       id="path90" /><path
       inkscape:connector-curvature="0"
       d="m 319.07066,456.11338 c 2.096,0.12134 2.088,-3.14 0,-3.26 -5.044,-0.29333 -9.63867,2.68534 -10.224,8.00134 -0.28133,2.54666 0.53867,4.78133 1.97867,6.85333 2.644,3.8 9.42533,8.156 2.87866,12.77866 -1.7,1.20134 -0.0733,4.02934 1.64534,2.816 3.084,-2.17733 4.90933,-5.56266 4.05333,-9.41466 -0.42933,-1.932 -1.55867,-3.336 -2.852,-4.77467 -1.22,-1.35867 -3.18933,-2.612 -3.78133,-4.39466 -1.56534,-4.71867 1.24666,-8.89867 6.30133,-8.60534"
       style="fill:#ffffff;fill-opacity:1;fill-rule:nonzero;stroke:none;stroke-width:0.13333333"
       id="path92" /><path
       inkscape:connector-curvature="0"
       d="m 279.00799,513.49205 c -0.064,-0.32934 -0.152,-0.652 -0.27333,-0.964 -1.128,-2.90267 -4.25733,-3.02 -5.94,-5.168 -0.74933,-0.956 -0.55067,-4.76267 -2.544,-4.03734 -0.73333,0.27334 -3.26667,0.984 -5.776,1.856 -2.14667,-0.0707 -4.30933,-0.0427 -6.42533,-0.32 -5.356,-0.70133 -15.38,-8.692 -20.024,-2.34666 -0.89867,1.228 -1.81334,2.48933 -2.25867,3.92666 -0.364,1.176 -0.392,2.40667 -0.36133,3.60934 0.024,0.93733 -0.15867,2.448 0.492,3.032 0.684,0.61066 3.06,0.63066 3.996,0.82533 2.67466,0.55333 5.35066,1.10667 8.024,1.66 2.624,0.54267 5.64666,1.436 6.40666,4.03467 0.16667,0.568 0.20667,1.18533 0.44934,1.72 0.27333,0.60266 0.78,1.04666 1.28533,1.45733 1.85467,1.50533 3.88533,2.888 6.072,3.888 3.912,1.788 10.004,-2.024 13.54533,-3.91733 0.88267,-0.47067 1.78267,-0.988 2.40534,-1.78667 1.01066,-1.30267 1.076,-3.048 1.08933,-4.64667 0.009,-0.948 0.016,-1.912 -0.16267,-2.82266"
       style="fill:#efbfa5;fill-opacity:1;fill-rule:nonzero;stroke:none;stroke-width:0.13333333"
       id="path94" /><path
       inkscape:connector-curvature="0"
       d="m 183.82933,463.72005 c -1.69333,4.47733 -2.66,9.20933 -2.36533,14.38 0.30533,5.376 3.288,10.32933 7.19866,14.032 3.91067,3.7 8.70934,6.31066 13.51467,8.73866 14.33466,7.24534 29.28533,13.268 44.63733,17.98534 2.55733,-5.21867 5.11467,-10.436 7.672,-15.65334 0.62,-1.26266 1.252,-2.69466 0.79733,-4.02666 -0.42933,-1.26134 -1.696,-2.00534 -2.86666,-2.64267 -5.568,-3.028 -11.13734,-6.05733 -16.70534,-9.08533 -5.22666,-2.844 -10.772,-6.01067 -13.37066,-11.364 -4.972,-10.24667 6.41733,-14.67333 12.108,-20.48933 7.73733,-7.90667 15.748,-15.62534 23.24666,-23.75867 7.10534,-7.26 14.40667,-14.836 17.51334,-24.29067 6.18,-18.81333 -0.19467,-31.952 -17.924,-24.16666 -11.236,4.93466 -19.64667,13.63866 -31.48,24.45333 -16.06667,14.68533 -34.20267,35.34 -41.976,55.888"
       style="fill:#8cabef;fill-opacity:1;fill-rule:nonzero;stroke:none;stroke-width:0.13333333"
       id="path96" /><path
       inkscape:connector-curvature="0"
       d="m 578.83065,345.59472 c -38.10533,0 -72.208,16.87466 -95.32666,43.54 l 95.32666,82.59999 95.32533,-82.59999 c -23.12,-26.66534 -57.22266,-43.54 -95.32533,-43.54"
       style="fill:#2f3789;fill-opacity:1;fill-rule:nonzero;stroke:none;stroke-width:0.13333333"
       id="path98" /><path
       inkscape:connector-curvature="0"
       d="m 483.63732,389.55205 c -44.93733,53.30667 -38.16266,132.80533 15.14667,177.74266 4.66133,3.93067 9.53466,7.44 14.556,10.58134 l 66.74266,-107.02534 -96.44533,-81.29866"
       style="fill:#eed5d5;fill-opacity:1;fill-rule:nonzero;stroke:none;stroke-width:0.13333333"
       id="path100" /><path
       inkscape:connector-curvature="0"
       d="m 579.90932,597.15871 c -23.636,0.005 -47.35333,-6.59333 -68.18933,-20.032 l 68.20266,-106.10266 -0.0133,126.13466"
       style="fill:#8cabef;fill-opacity:1;fill-rule:nonzero;stroke:none;stroke-width:0.13333333"
       id="path102" /><path
       inkscape:connector-curvature="0"
       d="m 736.58131,442.88405 c -3.49333,-24.54667 -14.03999,-46.792 -29.52399,-64.64933 l -95.32534,82.6 124.84933,-17.95067"
       style="fill:#d67086;fill-opacity:1;fill-rule:nonzero;stroke:none;stroke-width:0.13333333"
       id="path104" /><path
       inkscape:connector-curvature="0"
       d="m 717.89332,462.04672 -124.848,17.95066 v 126.13866 c 69.72,0 126.13866,-56.41733 126.13866,-126.13866 0,-6.09733 -0.45733,-12.08533 -1.29066,-17.95066"
       style="fill:#424dc1;fill-opacity:1;fill-rule:nonzero;stroke:none;stroke-width:0.13333333"
       id="path106" /><path
       inkscape:connector-curvature="0"
       d="m 658.16932,825.82804 c -13.66667,-7.56 -27.092,1.73067 -36.83867,10.50267 -19.31333,17.36 -40.304,32.77733 -60.91333,48.62666 -6.80933,-3.848 -14.26667,-8.02533 -17.66667,-9.80667 -20.85333,-10.92399 -42.15333,-21.17199 -61.8,-33.96666 -9.592,-6.25867 -22.72133,-12.08267 -35.56933,-0.97067 -10.53733,9.11334 -14.36133,25.48 -10.99733,35.42533 3.364,9.94534 11.92,14.93467 20.428,19.07467 21.44533,10.43867 46.568,23.58933 70.59466,26.216 10.46667,1.14533 22.25334,0.428 32.81867,0.15867 16.62,-0.42267 35.032,-1.20534 49.41333,-9.93467 14.63067,-8.88 28.684,-18.67867 42.47067,-28.80933 8.688,-6.384 17.4,-13.62134 20.57466,-24.37467 3.17467,-10.75466 -1.30533,-25.94133 -12.51466,-32.14133"
       style="fill:#1d2b56;fill-opacity:1;fill-rule:nonzero;stroke:none;stroke-width:0.13333333"
       id="path108" /><path
       inkscape:connector-curvature="0"
       d="m 640.01998,881.06004 c -1.59066,-13.75867 -8.48666,-24.68133 -21.22666,-30.66133 -10.33334,-4.852 -21.94933,-5.992 -33.27067,-7.44534 -25.216,-3.236 -49.288,-6.47066 -74.748,-5.46933 -20.36,0.8 -32.908,18.17067 -42.43733,35.304 -6.00533,10.796 -4.33733,15.86 3.22267,24.90266 6.96933,8.33734 15.43066,15.432 24.88133,20.80267 18.71067,10.63333 47.456,8.004 68.06267,5.70667 19.45066,-2.168 38.48933,-7.97734 55.83599,-17.03734 11.16534,-5.83066 21.22934,-12.70666 19.68,-26.10266"
       style="fill:#1d2b56;fill-opacity:1;fill-rule:nonzero;stroke:none;stroke-width:0.13333333"
       id="path110" /><path
       inkscape:connector-curvature="0"
       d="m 562.93065,667.74804 c 7.476,0.72667 14.952,1.45334 22.42934,2.18 1.148,-6.592 1.82666,-13.29066 2.02666,-20.008 6.51334,-1.12933 14.176,-3.26666 16.41467,-10.228 0.704,-2.192 0.732,-4.57733 0.75333,-6.912 0.0853,-9.64933 0.17067,-19.29866 0.256,-28.948 0.0293,-3.33733 0.0427,-6.77733 -1.072,-9.87599 -1.95467,-5.43734 -6.94,-8.68534 -11.83066,-10.732 -12.48134,-5.22267 -27.03867,-5.04 -38.57734,2.33733 -3.072,1.96267 -5.97066,4.49067 -7.744,7.92533 -2.73333,5.296 -2.40133,11.84133 -1.98933,17.95867 0.38133,5.64666 0.76267,11.29333 1.144,16.93866 0.43867,6.49467 1.38133,13.972 6.31467,17.40934 2.61866,1.82533 6.00666,2.16533 8.26266,4.52533 3.97867,4.16267 2.14667,11.55333 3.612,17.42933"
       style="fill:#efbfa5;fill-opacity:1;fill-rule:nonzero;stroke:none;stroke-width:0.13333333"
       id="path112" /><path
       inkscape:connector-curvature="0"
       d="m 578.10932,644.13338 c 2.08667,0.003 4.144,-0.29867 6.12533,-1.02534 4.19734,-1.54 7.356,-4.77066 10.35734,-7.896 5.62799,-5.85733 11.05733,-12.75066 14.82933,-19.79866 4.324,-8.08134 2.11066,-17.44933 5.18933,-25.87867 2.72133,-7.44666 9.33867,-13.61466 10.26133,-21.43066 -3.192,1.292 -6.62533,2.06933 -10.10133,2.28533 2.488,-2.44667 3.89067,-5.81467 3.82,-9.17733 -3.99067,3.08 -8.49733,5.58533 -13.30933,7.396 1.49733,-1.548 2.07733,-3.812 1.492,-5.81867 -3.068,4.48267 -9.24133,6.29867 -14.968,6.404 -5.72533,0.108 -11.39067,-1.144 -17.11733,-1.23867 -11.95067,-0.2 -23.68534,5.21067 -31.26934,13.68667 -6.21066,6.944 -7.91333,12.67067 -8.084,21.84666 -0.10666,5.756 -0.184,11.676 2.04,17.05067 4.24267,10.256 15.72,16.15067 26.68,20.32533 4.46,1.70134 9.332,3.264 14.05467,3.26934"
       style="fill:#2b2b2b;fill-opacity:1;fill-rule:nonzero;stroke:none;stroke-width:0.13333333"
       id="path114" /><path
       inkscape:connector-curvature="0"
       d="m 574.97199,661.27071 c 9.58933,-1.27733 19.32666,-3.01733 27.36133,0.48533 6.804,2.96534 6.68666,11.55734 8.208,18.052 5.03466,21.49067 8.81733,43.23867 11.77866,65.10533 1.416,10.45334 3.86267,21.648 3.80267,32.20667 -0.0493,8.472 -2.17067,16.708 -1.51867,25.34267 0.50134,6.63333 3.32,13.79466 9.396,16.50666 3.056,1.36667 6.568,1.43067 9.632,2.78 3.06267,1.35067 5.68534,4.95867 4.144,7.93067 -0.73333,1.412 -2.2,2.264 -3.58933,3.03867 -7.57733,4.22533 -15.15467,8.44933 -22.73067,12.67466 -5.78666,3.22667 -11.60533,6.468 -17.84133,8.708 -8.836,3.17334 -18.28133,4.25467 -27.65733,4.73067 -24.216,1.23067 -48.62667,-1.448 -72,-7.89733 -12.584,-3.47334 -24.74,-9.63334 -21.688,-23.87067 3.14267,-14.65333 9.22,-29.27333 15.77067,-42.692 7.932,-16.24267 10.28533,-35.81867 15.904,-52.95866 5.69466,-17.37067 11.716,-34.632 17.784,-51.87734 l 0.0693,-0.19466 c 2.21733,-6.304 3.12667,-12.53867 8.01067,-17.65334 6.68666,-6.99733 9.90666,-1.43466 17.496,-0.009 5.51066,1.03333 11.56,0.40533 17.668,-0.408"
       style="fill:#424dc1;fill-opacity:1;fill-rule:nonzero;stroke:none;stroke-width:0.13333333"
       id="path116" /><path
       inkscape:connector-curvature="0"
       d="m 666.68665,578.38005 c 0.76133,-0.20667 1.444,-0.47867 2.11867,-1.62134 1.328,-2.248 1.544,-5.69466 2.73066,-8.16266 1.92667,-0.95067 4.37467,0.28266 5.43467,2.152 1.05867,1.86933 1.05467,4.14666 0.85733,6.28533 -0.36666,3.98933 -1.31066,7.924 -2.792,11.64533 -0.19733,0.49334 -0.41066,0.99734 -0.78266,1.37734 -1.048,1.07333 -2.94134,0.81866 -4.052,1.828 -0.90267,0.82 -1.03334,2.25466 -1.94,3.072 -1.06534,0.95733 -2.71467,0.692 -4.104,0.33866 -3.32134,-0.84533 -8.81734,-1.59733 -7.38667,-6.32533 0.74267,-2.45467 5.34267,-7.55733 7.248,-9.296 1.024,-0.93733 1.888,-1.08133 2.668,-1.29333"
       style="fill:#efbfa5;fill-opacity:1;fill-rule:nonzero;stroke:none;stroke-width:0.13333333"
       id="path118" /><path
       inkscape:connector-curvature="0"
       d="m 653.39465,589.08405 c 6.97867,-0.56534 14.10267,0.76266 20.408,3.80666 -6.77467,36.09067 -20.344,70.5 -33.836,104.652 -0.47867,1.20933 -0.99733,2.47733 -2.016,3.284 -0.924,0.73333 -2.132,0.984 -3.292,1.19867 -12.24933,2.26 -24.80133,2.868 -37.212,1.80133 -6.04666,-0.52 -4.55333,-32.81733 -3.13466,-36.6 4.85333,-12.94133 15.45999,0.40933 24.12533,-1.50133 7.26133,-1.6 15.53466,-29.08534 18.728,-36.512 5.696,-13.25734 11.10933,-26.63734 16.22933,-40.12933"
       style="fill:#424dc1;fill-opacity:1;fill-rule:nonzero;stroke:none;stroke-width:0.13333333"
       id="path120" /><path
       inkscape:connector-curvature="0"
       d="m 495.80665,565.19605 c -0.70533,-0.35334 -1.31866,-0.75734 -1.752,-2.01067 -0.85333,-2.468 -0.37866,-5.888 -1.05066,-8.54267 -1.69867,-1.316 -4.34267,-0.596 -5.75334,1.02534 -1.41066,1.62133 -1.86133,3.85333 -2.09333,5.98933 -0.43467,3.98 -0.29467,8.02533 0.416,11.96667 0.0933,0.52266 0.204,1.06 0.492,1.50666 0.81333,1.26 2.72,1.38934 3.60533,2.59867 0.72134,0.98267 0.564,2.41467 1.28934,3.396 0.85333,1.152 2.524,1.22 3.956,1.14933 3.42133,-0.16666 8.95866,0.19334 8.49866,-4.72666 -0.23866,-2.55334 -3.73066,-8.46934 -5.24933,-10.55334 -0.81867,-1.12266 -1.63733,-1.43466 -2.35867,-1.79866"
       style="fill:#efbfa5;fill-opacity:1;fill-rule:nonzero;stroke:none;stroke-width:0.13333333"
       id="path122" /><path
       inkscape:connector-curvature="0"
       d="m 506.69865,578.33471 c -6.72533,-1.94533 -13.97066,-2.064 -20.756,-0.336 -0.552,36.71733 5.888,73.13867 12.30667,109.296 0.22667,1.28 0.48267,2.624 1.32,3.61867 0.76,0.90266 1.89333,1.38933 2.98667,1.83066 11.55333,4.65467 23.73333,7.752 36.108,9.17867 6.028,0.696 11.00133,-31.25067 10.364,-35.24 -2.17734,-13.65067 -15.23067,-2.68133 -23.34267,-6.27867 -6.79733,-3.016 -9.42933,-31.59866 -11.076,-39.51066 -2.94267,-14.128 -5.58,-28.31733 -7.91067,-42.55867"
       style="fill:#424dc1;fill-opacity:1;fill-rule:nonzero;stroke:none;stroke-width:0.13333333"
       id="path124" /><path
       inkscape:connector-curvature="0"
       d="m 756.42798,220.91605 c 0.91067,-0.41466 1.71733,-0.99066 2.33733,-1.796 0.15067,-0.19466 0.288,-0.40666 0.33334,-0.64666 0.0547,-0.28 -0.0213,-0.56934 -0.0987,-0.84534 -0.29333,-1.05466 -3.30667,-9.22666 -2.636,-9.64133 5.164,-2.868 9.56933,-7.692 12.11733,-12.67866 4.76134,-9.31334 5.01067,-19.948 4.08267,-29.956 -1.33467,-14.384 -6.32533,-30.15334 -19.65867,-35.424 -10.22533,-4.044 -23.05599,0.35866 -31.29866,8.012 -10.6,9.84266 -8.97333,26.06266 -6.736,38.56533 1.60133,8.94 5.44,17.808 11.72933,24.45733 3.16,3.34 6.968,6.07067 11.25867,7.76133 2.08266,0.82 4.02533,0.652 4.64533,2.72267 0.76933,2.56533 0.39333,6.37333 0.63733,9.10667 0.04,0.452 0.10934,0.96133 0.47334,1.23466 0.26,0.19467 0.608,0.21867 0.93466,0.232 2.23467,0.0853 4.47334,0.064 6.704,-0.0627 1.74534,-0.0987 3.612,-0.33067 5.17467,-1.04134"
       style="fill:#efbfa5;fill-opacity:1;fill-rule:nonzero;stroke:none;stroke-width:0.13333333"
       id="path126" /><path
       inkscape:connector-curvature="0"
       d="m 759.18531,149.64272 c 5.20267,3.05467 10.3,8.248 9.34667,14.20667 2.72933,-1.356 6.12133,1.29867 6.51733,4.32133 0.39467,3.02267 -1.28666,5.92667 -3.24,8.26534 3.048,0.51466 6.03867,-1.684 7.428,-4.444 1.388,-2.76 1.52667,-5.96267 1.58,-9.05334 0.15867,-9.16266 -0.23866,-18.57333 -3.768,-27.032 -3.528,-8.45866 -10.76,-15.876 -19.80933,-17.332 -2.788,-0.44933 -5.64,-0.328 -8.448,-0.024 -2.28,0.24667 -4.608,0.63467 -6.59333,1.784 -16.17733,9.36267 10.25333,25.35467 16.98666,29.308"
       style="fill:#1d2b56;fill-opacity:1;fill-rule:nonzero;stroke:none;stroke-width:0.13333333"
       id="path128" /><path
       inkscape:connector-curvature="0"
       d="m 721.78798,167.69472 c -2.68,7.132 3.74534,14.976 2.08134,22.41067 -1.03334,4.62267 -5.09334,8.39867 -5.08134,13.136 0.016,6.116 6.79734,10.60933 6.87334,16.72533 -3.884,-4.87733 -11.316,-6.06 -14.69067,-11.30267 -1.39067,-2.16 -1.90267,-4.752 -2.872,-7.132 -3.988,-9.78799 -14.752,-14.53599 -23.83467,-19.94133 -1.05733,-0.628 -2.144,-1.31866 -2.764,-2.38 -1.372,-2.34666 0.048,-5.25733 1.22,-7.71066 3.55467,-7.43467 4.81467,-15.948 3.568,-24.09467 -1.188,-7.75867 -4.58533,-15.47733 -3.04133,-23.172 1.37333,-6.85067 6.94133,-12.676 13.72267,-14.35867 6.10533,-1.51466 12.65466,0.13067 18.772,-1.34133 4.06,-0.976 7.65866,-3.26 11.44266,-5.02533 8.74667,-4.081336 20.284,-4.913336 27.084,1.93866 6.012,6.056 6.05467,16.26534 2.11067,23.83334 -2.436,4.676 -5.908,8.704 -8.376,13.372 -1.896,3.588 -3.244,7.51733 -6.34934,10.30133 -5.97866,5.356 -16.73599,6.41067 -19.86533,14.74133"
       style="fill:#1d2b56;fill-opacity:1;fill-rule:nonzero;stroke:none;stroke-width:0.13333333"
       id="path130" /><path
       inkscape:connector-curvature="0"
       d="m 774.84531,255.25072 c 0.552,0.11067 1.12134,0.23467 1.57067,0.572 1.312,0.98133 0.91467,2.996 1.25867,4.59733 0.22,1.02267 0.78266,1.93334 1.33466,2.82134 0.952,1.528 1.904,3.056 2.856,4.584 0.16,0.25733 0.32934,0.524 0.59067,0.676 0.23867,0.13866 0.52267,0.16666 0.79733,0.18533 2.872,0.18533 5.93867,-0.41733 8.06134,-2.35867 2.06666,-1.888 2.952,-4.76933 3.17733,-7.56 0.144,-1.788 0.0533,-3.59466 -0.26933,-5.35866 -0.1,-0.54934 -0.23067,-1.112 -0.56667,-1.55867 -0.27467,-0.36533 -0.66533,-0.62267 -1.05467,-0.86 -2.46133,-1.49333 -5.24533,-2.44933 -8.10533,-2.78 -1.62267,-0.18667 -3.30267,-0.18533 -4.80533,-0.82267 -1.05334,-0.44666 -1.95334,-1.18 -2.868,-1.868 -1.832,-1.38133 -3.77734,-2.60933 -5.81067,-3.67066 -0.40533,-0.21067 -2.15867,8.932 -2.204,9.76666 -0.208,3.83467 2.90933,3.01067 6.03733,3.63467"
       style="fill:#efbfa5;fill-opacity:1;fill-rule:nonzero;stroke:none;stroke-width:0.13333333"
       id="path132" /><path
       inkscape:connector-curvature="0"
       d="m 679.64132,201.19339 c -2.29067,-0.24934 -4.56267,-0.42934 -6.80667,-0.53334 -2.464,-0.11466 -4.98533,-0.18933 -7.33733,0.548 -2.228,0.69867 -4.17334,2.08934 -5.95067,3.60267 -7.736,6.59867 -16.07333,19.52133 -7.09733,28.07733 2.68933,2.56534 6.35733,3.792 9.93066,4.816 9.85867,2.828 19.964,4.69334 30.04934,6.55467 26.968,4.976 53.93466,9.95067 80.90266,14.92667 1.73333,-5.62667 3.46533,-11.25467 5.196,-16.88 1.41467,-4.592 -36.68667,-22.464 -41.06933,-24.356 -17.51333,-7.55867 -38.368,-14.64267 -57.81733,-16.756"
       style="fill:#d67086;fill-opacity:1;fill-rule:nonzero;stroke:none;stroke-width:0.13333333"
       id="path134" /><path
       inkscape:connector-curvature="0"
       d="m 969.16131,463.02538 h 25.58133 v -67.72 h -25.58133 v 67.72"
       style="fill:#ffffff;fill-opacity:1;fill-rule:nonzero;stroke:none;stroke-width:0.13333333"
       id="path136" /><path
       inkscape:connector-curvature="0"
       d="m 889.69331,463.02538 h 25.58 v -49.352 h -25.58 v 49.352"
       style="fill:#ffffff;fill-opacity:1;fill-rule:nonzero;stroke:none;stroke-width:0.13333333"
       id="path138" /><path
       inkscape:connector-curvature="0"
       d="m 810.22398,463.02538 h 25.58133 v -68.752 h -25.58133 v 68.752"
       style="fill:#ffffff;fill-opacity:1;fill-rule:nonzero;stroke:none;stroke-width:0.13333333"
       id="path140" /><path
       inkscape:connector-curvature="0"
       d="m 849.95865,463.02538 h 25.57999 v -95.48933 h -25.57999 v 95.48933"
       style="fill:#ffffff;fill-opacity:1;fill-rule:nonzero;stroke:none;stroke-width:0.13333333"
       id="path142" /><path
       inkscape:connector-curvature="0"
       d="m 929.42664,463.02538 h 25.58134 v -121.208 h -25.58134 v 121.208"
       style="fill:#ffffff;fill-opacity:1;fill-rule:nonzero;stroke:none;stroke-width:0.13333333"
       id="path144" /><path
       inkscape:connector-curvature="0"
       d="m 805.41731,496.81205 h 194.95599 v -8.26511 H 805.41731 Z"
       style="fill:#a5bdf3;fill-opacity:1;fill-rule:nonzero;stroke:none;stroke-width:0.13333333"
       id="path146" /><path
       inkscape:connector-curvature="0"
       d="m 805.41731,525.37605 h 194.95599 v -8.26667 H 805.41731 Z"
       style="fill:#a5bdf3;fill-opacity:1;fill-rule:nonzero;stroke:none;stroke-width:0.13333333"
       id="path148" /><path
       inkscape:connector-curvature="0"
       d="m 805.41731,553.93871 h 194.95599 v -8.2651 H 805.41731 Z"
       style="fill:#a5bdf3;fill-opacity:1;fill-rule:nonzero;stroke:none;stroke-width:0.13333333"
       id="path150" /><path
       inkscape:connector-curvature="0"
       d="m 805.41731,582.50271 h 194.95599 v -8.26666 H 805.41731 Z"
       style="fill:#a5bdf3;fill-opacity:1;fill-rule:nonzero;stroke:none;stroke-width:0.13333333"
       id="path152" /><path
       inkscape:connector-curvature="0"
       d="m 805.41731,611.06538 h 194.95599 v -8.26667 H 805.41731 Z"
       style="fill:#a5bdf3;fill-opacity:1;fill-rule:nonzero;stroke:none;stroke-width:0.13333333"
       id="path154" /><path
       inkscape:connector-curvature="0"
       d="m 988.67331,525.23871 c 2.91867,-3.24666 5.84,-6.492 8.75867,-9.73733 0.904,-1.00533 2.89062,-4.30133 4.46802,-3.04667 0.7653,0.60934 3.5173,2.43734 6.164,4.44267 2.6533,0.76667 5.2786,1.65467 7.992,2.168 6.8706,1.296 22.9093,-4.056 25.5506,5.172 0.512,1.78533 1.028,3.61733 0.8854,5.468 -0.116,1.51333 -0.6694,2.95733 -1.2787,4.348 -0.476,1.08267 -0.972,2.916 -2.0453,3.33733 -1.1267,0.444 -4.0347,-0.47333 -5.2694,-0.616 -3.528,-0.412 -7.0546,-0.82266 -10.5826,-1.236 -3.4587,-0.40266 -7.572,-0.556 -9.7387,2.172 -0.4747,0.59734 -0.8173,1.30134 -1.368,1.828 -0.6213,0.59467 -1.4507,0.912 -2.2627,1.19067 -2.98,1.02 -6.116,1.82933 -9.2586,2.13067 -2.86802,0.276 -4.13736,-1.60667 -6.17202,-3.344 -2.37734,-2.032 -5.416,-2.16134 -7.808,-4.11334 -1.348,-1.1 -2.31867,-2.83333 -2.032,-4.55066 0.232,-1.39067 1.21333,-2.51867 2.156,-3.56667 0.61333,-0.68267 1.228,-1.36533 1.84133,-2.04667"
       style="fill:#b97262;fill-opacity:1;fill-rule:nonzero;stroke:none;stroke-width:0.13333333"
       id="path156" /><path
       inkscape:connector-curvature="0"
       d="m 1116.232,537.25205 c -6.6054,4.19066 -13.8614,6.66266 -22.7054,7.908 -21.856,3.076 -44.1906,2.72133 -65.9386,-1.044 -1.4094,-10.28667 -0.76,-20.852 1.9013,-30.88667 18.1013,-1.06267 36.1173,-3.56933 53.8213,-7.488 8.6747,-1.92 16.0427,-5.07733 19.972,-13.58133 8.748,-18.93334 16.076,-38.524 21.8974,-58.55067 1.288,-4.428 2.5466,-8.976 5.2053,-12.74533 4.8747,-6.908 14.04,-10.06667 22.416,-8.90133 8.376,1.164 15.8907,6.168 21.3547,12.62133 3.9173,4.62533 6.98,10.26133 7.244,16.316 0.272,6.26133 -2.432,12.236 -5.2574,17.83333 -12.5973,24.96533 -28.816,48.10133 -47.988,68.45867 -3.8733,4.11333 -7.7693,7.42666 -11.9226,10.06"
       style="fill:#2f3789;fill-opacity:1;fill-rule:nonzero;stroke:none;stroke-width:0.13333333"
       id="path158" /></g></svg>