<?xml version="1.0" encoding="UTF-8" standalone="no"?>
<svg
   xmlns:dc="http://purl.org/dc/elements/1.1/"
   xmlns:cc="http://creativecommons.org/ns#"
   xmlns:rdf="http://www.w3.org/1999/02/22-rdf-syntax-ns#"
   xmlns:svg="http://www.w3.org/2000/svg"
   xmlns="http://www.w3.org/2000/svg"
   xmlns:sodipodi="http://sodipodi.sourceforge.net/DTD/sodipodi-0.dtd"
   xmlns:inkscape="http://www.inkscape.org/namespaces/inkscape"
   viewBox="0 0 1333.3333 1066.6667"
   height="1066.6667"
   width="1333.3333"
   xml:space="preserve"
   id="svg2"
   version="1.1"
   sodipodi:docname="personas.svg"
   inkscape:version="0.92.3 (2405546, 2018-03-11)"><sodipodi:namedview
     pagecolor="#ffffff"
     bordercolor="#666666"
     borderopacity="1"
     objecttolerance="10"
     gridtolerance="10"
     guidetolerance="10"
     inkscape:pageopacity="0"
     inkscape:pageshadow="2"
     inkscape:window-width="1366"
     inkscape:window-height="710"
     id="namedview87"
     showgrid="false"
     inkscape:zoom="0.22124998"
     inkscape:cx="268.92648"
     inkscape:cy="583.05089"
     inkscape:window-x="0"
     inkscape:window-y="27"
     inkscape:window-maximized="1"
     inkscape:current-layer="svg2" /><metadata
     id="metadata8"><rdf:RDF><cc:Work
         rdf:about=""><dc:format>image/svg+xml</dc:format><dc:type
           rdf:resource="http://purl.org/dc/dcmitype/StillImage" /><dc:title></dc:title></cc:Work></rdf:RDF></metadata><defs
     id="defs6" /><path
     id="path16"
     style="fill:#f6eaea;fill-opacity:1;fill-rule:nonzero;stroke:none;stroke-width:0.13333333"
     d="m 1107.04,929.34937 c -7.652,0 -15.3467,-0.368 -23.1267,-1.26667 -29.7227,-3.436 -59.852,-5.152 -89.42666,-10.05466 -67.87466,-11.25467 -135.78133,-11.92 -204.14933,-11.92 -27.14666,0 -54.284,-0.31334 -81.42533,-0.31334 -39.51733,0 -79.02666,0.66534 -118.46533,3.93467 -61.52,5.09867 -123.144,5.912 -184.77599,5.912 -9.304,0 -18.60934,-0.0187 -27.91334,-0.044 -0.596,-10e-4 -1.19066,-0.003 -1.78533,-0.003 -34.13067,0 -68.128,2.604 -102.208,4.444 -34.224,1.848 -67.504,4.88267 -101.53199,4.88267 -3.072,0 -6.156,-0.0253 -9.24134,-0.0773 -34.00373,-0.58 -85.778662,-12.84934 -110.037995,-44.12 -14.402133,-18.58133 -12.450533,-63.28 1.9744,-81.19333 6.300533,-7.82667 16.458933,-13.956 24.757333,-17.68534 23.638002,-10.62266 47.693202,-10.64933 72.394262,-10.86933 0.30267,-0.003 0.60667,-0.004 0.91067,-0.004 17.04267,0 34.76267,4.256 51.09733,10.168 14.86133,5.37733 30.04667,7.26267 45.16267,10.60933 6.60933,1.46534 13.468,2.52134 20.41866,3.188 v 2.92267 h 764.82261 v -17.256 c 5.4467,-0.068 10.888,-0.12267 16.324,-0.14667 2.284,-0.0107 5.468,-0.028 9.408,-0.028 51.0987,0 229.2494,2.90134 216.4694,61.77334 -4.9094,22.61866 -33.4507,52.05866 -49.4614,61.53466 -20.2253,11.97067 -42.3426,19.05333 -64.6053,21.44133 -18.764,2.012 -37.0573,4.17067 -55.5853,4.17067"
     inkscape:connector-curvature="0" /><path
     id="path18"
     style="fill:#dddae8;fill-opacity:1;fill-rule:nonzero;stroke:none;stroke-width:0.13333333"
     d="M 269.66799,797.86004 H 1034.4906 V 315.38672 H 269.66799 Z"
     inkscape:connector-curvature="0" /><path
     id="path20"
     style="fill:#292949;fill-opacity:1;fill-rule:nonzero;stroke:none;stroke-width:0.13333333"
     d="M 269.66799,306.72805 H 1034.4906 V 277.78019 H 269.66799 Z"
     inkscape:connector-curvature="0" /><path
     id="path22"
     style="fill:#d67086;fill-opacity:1;fill-rule:nonzero;stroke:none;stroke-width:0.13333333"
     d="m 269.66799,344.72805 h 764.82261 v -38 H 269.66799 Z"
     inkscape:connector-curvature="0" /><path
     id="path24"
     style="fill:#f3f3f3;fill-opacity:1;fill-rule:nonzero;stroke:none;stroke-width:0.13333333"
     d="m 348.85732,336.89605 h 650.43599 v -16.2224 H 348.85732 Z"
     inkscape:connector-curvature="0" /><path
     id="path26"
     style="fill:#8cabef;fill-opacity:1;fill-rule:nonzero;stroke:none;stroke-width:0.13333333"
     d="m 301.68133,291.05339 c 0,2.62933 -2.16667,4.76133 -4.84134,4.76133 -2.67333,0 -4.84,-2.132 -4.84,-4.76133 0,-2.63067 2.16667,-4.76267 4.84,-4.76267 2.67467,0 4.84134,2.132 4.84134,4.76267"
     inkscape:connector-curvature="0" /><path
     id="path28"
     style="fill:#dddae8;fill-opacity:1;fill-rule:nonzero;stroke:none;stroke-width:0.13333333"
     d="m 315.85733,291.05339 c 0,2.62933 -2.16667,4.76133 -4.84134,4.76133 -2.67333,0 -4.84,-2.132 -4.84,-4.76133 0,-2.63067 2.16667,-4.76267 4.84,-4.76267 2.67467,0 4.84134,2.132 4.84134,4.76267"
     inkscape:connector-curvature="0" /><path
     id="path30"
     style="fill:#d67086;fill-opacity:1;fill-rule:nonzero;stroke:none;stroke-width:0.13333333"
     d="m 330.03333,291.05339 c 0,2.62933 -2.168,4.76133 -4.84,4.76133 -2.67467,0 -4.84134,-2.132 -4.84134,-4.76133 0,-2.63067 2.16667,-4.76267 4.84134,-4.76267 2.672,0 4.84,2.132 4.84,4.76267"
     inkscape:connector-curvature="0" /><path
     id="path32"
     style="fill:#e09fad;fill-opacity:1;fill-rule:nonzero;stroke:none;stroke-width:0.13333333"
     d="m 322.43599,336.56805 v -15.56533 l 5.632,7.78267 -5.632,7.78266"
     inkscape:connector-curvature="0" /><path
     id="path34"
     style="fill:#e09fad;fill-opacity:1;fill-rule:nonzero;stroke:none;stroke-width:0.13333333"
     d="m 299.59733,336.56805 -5.632,-7.78266 5.632,-7.78267 v 15.56533"
     inkscape:connector-curvature="0" /><path
     id="path36"
     style="fill:#353a85;fill-opacity:1;fill-rule:nonzero;stroke:none;stroke-width:0.13333333"
     d="m 126.70413,853.79071 -1.1172,8.68666 16.2584,10.92267 9.80533,-7.57067 -7.57066,-9.80533 -16.2592,-10.92267 -1.11667,8.68934"
     inkscape:connector-curvature="0" /><path
     id="path38"
     style="fill:#252526;fill-opacity:1;fill-rule:nonzero;stroke:none;stroke-width:0.13333333"
     d="m 126.15466,850.87337 12.53867,-110.79866 -15.086,-124.04 3.39213,-26.38533 67.3832,-2.56 2.43067,42.94533 -11.31067,110.21066 -42.55866,116.28934 -16.78934,-5.66134"
     inkscape:connector-curvature="0" /><path
     id="path40"
     style="fill:#3b3387;fill-opacity:1;fill-rule:nonzero;stroke:none;stroke-width:0.13333333"
     d="m 200.70799,464.49605 33.89334,9.232 39.2,69.45866 -18.56934,17.192 -26.132,-30.94666 -28.392,-64.936"
     inkscape:connector-curvature="0" /><path
     id="path42"
     style="fill:#252526;fill-opacity:1;fill-rule:nonzero;stroke:none;stroke-width:0.13333333"
     d="m 243.82533,599.50671 0.17733,111.81067 -22.50533,143.93599 -16.2,-0.16133 -8.904,-133.108 -20.84,-133.22799 68.272,10.75066"
     inkscape:connector-curvature="0" /><path
     id="path44"
     style="fill:#353a85;fill-opacity:1;fill-rule:nonzero;stroke:none;stroke-width:0.13333333"
     d="m 205.32266,861.92404 17.43067,8.93466 8.84666,-8.67199 -8.672,-8.84667 -17.51733,-0.17467 -0.088,8.75867"
     inkscape:connector-curvature="0" /><path
     id="path46"
     style="fill:#3b3387;fill-opacity:1;fill-rule:nonzero;stroke:none;stroke-width:0.13333333"
     d="m 116.6344,637.53338 c 0.15413,-4.84534 0.424,-8.88934 0.462,-10.332 0.3468,-12.99867 1.5052,-25.96667 3.13226,-38.872 1.45774,-11.56533 3.2984,-40.276 5.27814,-51.76933 1.63386,-9.48934 7.3276,-33.176 11.44253,-41.97867 10.232,-21.88933 7.07067,-23.912 52.01467,-30.412 19.69866,-2.848 24.35333,9.428 40.45733,23.544 1.588,1.39333 1.50133,9.68267 1.86933,11.87733 0.64933,3.86667 1.344,7.72534 2.14133,11.56667 0.62667,3.01867 1.31867,6.02933 2.09334,9.01867 l -0.001,-10e-4 c 0,0 13.51867,61.52267 22.45867,74.58934 8.94,13.06666 27.41067,31.33333 -3.48533,42.48666 -5.47467,1.77067 -10.984,3.45467 -16.684,4.35467 0,0 -25.268,-2.808 -38.26267,-2.71067 -11.96666,0.088 -23.984,1.3 -35.74933,3.32933 -7.868,1.31467 -15.89733,3.22534 -22.936,6.90267 -6.71467,3.50667 -11.56013,8.66667 -18.3732,12.29733 -0.6452,0.344 -1.35253,0.70134 -2.08587,0.6 -3.91306,-0.544 -4.09746,-14.292 -3.77186,-24.49066"
     inkscape:connector-curvature="0" /><path
     id="path48"
     style="fill:#e2b79a;fill-opacity:1;fill-rule:nonzero;stroke:none;stroke-width:0.13333333"
     d="m 189.016,470.34271 c -2.268,1.12 -7.62,1.52134 -13.204,-0.66533 -1.12534,-0.44 -1.884,-1.52533 -1.868,-2.73333 0.044,-3.392 0.316,-6.78 0.816,-10.13467 -4.188,-1.47333 -9.02667,-3.68133 -9.75734,-8.05866 -0.22933,-1.38 0.009,-2.78934 0.24667,-4.16667 0.984,-5.696 1.96933,-11.392 2.95333,-17.088 0.34,-1.96933 0.70267,-3.99733 1.77334,-5.68533 1.88,-2.96134 5.528,-4.25734 8.98533,-4.85734 8.81867,-1.532 18.43067,0.38 25.26933,6.156 1.82,1.53734 3.46533,3.38667 4.268,5.62934 1.23733,3.45866 0.312,7.27333 -0.62133,10.82666 -0.86134,3.28 -1.72134,6.55867 -2.58267,9.83867 -0.99067,3.772 -2.42133,8.06 -6.05466,9.47467 -1.93067,0.75066 -4.208,0.532 -5.956,1.64266 -3.08,1.95867 -2.66534,6.54 -4.268,9.82133"
     inkscape:connector-curvature="0" /><path
     id="path50"
     style="fill:#292949;fill-opacity:1;fill-rule:nonzero;stroke:none;stroke-width:0.13333333"
     d="m 239.91999,413.54005 c 0.86667,-1.42267 1.8,-2.79467 2.844,-4.08267 2.26267,-2.788 5.048,-5.17866 6.868,-8.27333 1.82,-3.09467 2.46,-7.29067 0.27734,-10.14 -1.40934,-1.83867 -3.696,-2.75867 -5.91867,-3.412 -7.324,-2.156 -15.22933,-2.30133 -22.628,-0.41867 -7.048,1.79334 -13.35467,4.764 -20.448,2.11467 -6.66533,-2.48933 -11.48,-1.47467 -18.44666,1.01067 -7.53867,2.68933 -17.65867,3.324 -24.48267,7.12266 -2.84933,1.58534 -5.124,4.06267 -6.896,6.8 -6.14,9.484 -6.17467,22.56134 -0.084,32.076 1.36667,2.136 3.00267,4.08667 4.72,5.95067 3.55733,3.856 7.812,8.62133 12.704,10.04933 0.116,-4.376 -3.87067,-18.176 -0.50933,-21.764 5.33466,-5.692 17.39466,-3.70666 24.012,-2.30533 7.21866,1.52933 13.65199,6.64133 20.80799,7.732 5.14934,0.78667 11.72134,-1.73867 16.1,-4.4 5.40267,-3.28667 7.91867,-12.868 11.08,-18.06"
     inkscape:connector-curvature="0" /><path
     id="path52"
     style="fill:#3b3387;fill-opacity:1;fill-rule:nonzero;stroke:none;stroke-width:0.13333333"
     d="m 151.65066,472.58271 -28.04333,24.572 -31.284399,65.744 39.513469,47.008 6.79826,-26.288 13.016,-111.036"
     inkscape:connector-curvature="0" /><path
     id="path54"
     style="fill:#d8d5e3;fill-opacity:1;fill-rule:nonzero;stroke:none;stroke-width:0.13333333"
     d="M 891.27464,559.61605 H 499.18265 l -0.77333,-9.056 H 880.88798 V 430.43472 h 10.38666 v 129.18133"
     inkscape:connector-curvature="0" /><path
     id="path56"
     style="fill:#ffffff;fill-opacity:1;fill-rule:nonzero;stroke:none;stroke-width:0.13333333"
     d="M 409.31066,550.56005 H 880.88798 V 421.37725 H 409.31066 Z"
     inkscape:connector-curvature="0" /><path
     id="path58"
     style="fill:#f5f5f5;fill-opacity:1;fill-rule:nonzero;stroke:none;stroke-width:0.13333333"
     d="m 269.66799,765.22404 -11.07066,-129.62 c 5.628,-2.52533 9.12533,-5.34933 11.07066,-8.352 v 137.972 m 0,-152.744 c -2.82533,-6.21333 -8.04533,-12.396 -11.68533,-17.71599 -1.09333,-1.59734 -2.25467,-3.92 -3.452,-6.76534 l -2.70267,-31.652 3.404,4.032 14.436,-13.36533 v 65.46666 m 0,-76.61733 -13.59733,-24.09466 13.59733,-1.16134 v 25.256"
     inkscape:connector-curvature="0" /><path
     id="path60"
     style="fill:#d4d1df;fill-opacity:1;fill-rule:nonzero;stroke:none;stroke-width:0.13333333"
     d="m 272.37066,796.88004 -2.70267,-31.656 v -137.972 c 3.00934,-4.64666 2.296,-9.71866 0,-14.772 v -65.46666 l 4.13334,-3.82667 -4.13334,-7.324 v -25.256 l 139.64267,-11.92533 v 51.87867 h 10.38666 v 9.056 h 79.48533 l 18.47467,216.31466 -245.28666,20.94933"
     inkscape:connector-curvature="0" /><path
     id="path62"
     style="fill:#393182;fill-opacity:1;fill-rule:nonzero;stroke:none;stroke-width:0.13333333"
     d="m 255.23199,560.37871 -3.404,-4.032 -3.74933,-43.896 7.992,-0.68266 13.59733,24.09466 4.13334,7.324 -4.13334,3.82667 -14.436,13.36533"
     inkscape:connector-curvature="0" /><path
     id="path64"
     style="fill:#393182;fill-opacity:1;fill-rule:nonzero;stroke:none;stroke-width:0.13333333"
     d="m 258.59733,635.60404 -4.06667,-47.60533 c 1.19733,2.84534 2.35867,5.168 3.452,6.76534 3.64,5.31999 8.86,11.50266 11.68533,17.71599 2.296,5.05334 3.00934,10.12534 0,14.772 -1.94533,3.00267 -5.44266,5.82667 -11.07066,8.352"
     inkscape:connector-curvature="0" /><path
     id="path66"
     style="fill:#cfcdda;fill-opacity:1;fill-rule:nonzero;stroke:none;stroke-width:0.13333333"
     d="m 499.18265,559.61605 h -79.48533 v -9.056 h 78.712 l 0.77333,9.056"
     inkscape:connector-curvature="0" /><path
     id="path68"
     style="fill:#f5f5f5;fill-opacity:1;fill-rule:nonzero;stroke:none;stroke-width:0.13333333"
     d="m 498.40932,550.56005 h -89.09866 v -51.87867 l 84.05466,-7.18 5.044,59.05867"
     inkscape:connector-curvature="0" /><path
     id="path70"
     style="fill:#d67086;fill-opacity:1;fill-rule:nonzero;stroke:none;stroke-width:0.13333333"
     d="m 506.87065,768.22671 -284.42799,24.292 -24.29333,-284.42933 284.42932,-24.292 24.292,284.42933"
     inkscape:connector-curvature="0" /><path
     id="path72"
     style="fill:#ececec;fill-opacity:1;fill-rule:nonzero;stroke:none;stroke-width:0.13333333"
     d="m 467.51465,743.05604 -235.21999,-198.20266 5.62933,-6.68133 235.22,198.20266 -5.62934,6.68133"
     inkscape:connector-curvature="0" /><path
     id="path74"
     style="fill:#ececec;fill-opacity:1;fill-rule:nonzero;stroke:none;stroke-width:0.13333333"
     d="m 256.95866,761.03871 -6.68133,-5.62934 198.20399,-235.21999 6.68134,5.628 -198.204,235.22133"
     inkscape:connector-curvature="0" /><path
     id="path76"
     style="fill:#ececec;fill-opacity:1;fill-rule:nonzero;stroke:none;stroke-width:0.13333333"
     d="m 236.95866,540.79071 18.18533,212.91733 212.91733,-18.184 -18.18533,-212.91866 z m 10.224,222.36533 -19.672,-230.32666 230.32666,-19.672 19.672,230.32666 -230.32666,19.672"
     inkscape:connector-curvature="0" /><path
     id="path78"
     style="fill:#e2b79a;fill-opacity:1;fill-rule:nonzero;stroke:none;stroke-width:0.13333333"
     d="m 218.30933,595.95871 15.872,-4.74266 -1.73067,-6.872 -11.58933,0.84133 0.69066,-3.63067 -13.088,5.71334 0.836,7.38533 9.00934,1.30533"
     inkscape:connector-curvature="0" /><path
     id="path80"
     style="fill:#292949;fill-opacity:1;fill-rule:nonzero;stroke:none;stroke-width:0.13333333"
     d="m 541.50265,847.25471 -10.02133,-2.83334 -16.128,24.432 h 16.128 l 9.712,-4.95333 0.30933,-16.64533"
     inkscape:connector-curvature="0" /><path
     id="path82"
     style="fill:#7c9fdd;fill-opacity:1;fill-rule:nonzero;stroke:none;stroke-width:0.13333333"
     d="m 720.34265,797.88271 c 0,0 14.00133,10.256 13.82133,19.31866 0,0 1.49067,19.096 -2.3,26.61334 l -21.06133,19.18666 -38.91067,-2.49466 -12.56133,-55.14134 61.012,-7.48266"
     inkscape:connector-curvature="0" /><path
     id="path84"
     style="fill:#8cabef;fill-opacity:1;fill-rule:nonzero;stroke:none;stroke-width:0.13333333"
     d="m 677.63865,810.13871 c 0,0 16.80133,-3.94667 22.55467,7.51333 l 11.44666,21.14133 -20.17066,26.868 -152.82,-0.49066 0.31067,-18.25067 49.44,-13.95333 c -4.344,-2.92134 -7.976,-7.54267 -10.16,-12.24134 -3.91467,-8.424 -0.85867,-14.66133 2.292,-22.57866 0.96666,-2.428 5.57333,-15.88667 9.53066,-14.82934 l 87.576,26.82134"
     inkscape:connector-curvature="0" /><path
     id="path86"
     style="fill:#a0675c;fill-opacity:1;fill-rule:nonzero;stroke:none;stroke-width:0.13333333"
     d="m 788.79198,657.29204 12.02533,-7.95333 -3.176,-5.288 -9.44133,3.624 -0.34,-3.19867 -9.46133,8.06 2.55866,5.94134 7.83467,-1.18534"
     inkscape:connector-curvature="0" /><path
     id="path88"
     style="fill:#3b3387;fill-opacity:1;fill-rule:nonzero;stroke:none;stroke-width:0.13333333"
     d="m 684.37998,636.27871 37.13334,33.752 59.17466,-21.29733 4.47333,12.05066 -69.92666,49.59734 -47.14667,-37.764 16.292,-36.33867"
     inkscape:connector-curvature="0" /><path
     id="path90"
     style="fill:#a0675c;fill-opacity:1;fill-rule:nonzero;stroke:none;stroke-width:0.13333333"
     d="m 556.83732,556.52805 -1.768,-14.308 6.08267,-1.02267 3.38,9.532 2.65333,-1.81867 0.02,12.42934 -6.17867,1.91466 -4.18933,-6.72666"
     inkscape:connector-curvature="0" /><path
     id="path92"
     style="fill:#3b3387;fill-opacity:1;fill-rule:nonzero;stroke:none;stroke-width:0.13333333"
     d="m 640.65065,622.24671 -49.784,-6.29733 -22.25733,-58.82 -12.068,4.428 7.73333,85.38133 59.33867,11.30267 17.03733,-35.99467"
     inkscape:connector-curvature="0" /><path
     id="path94"
     style="fill:#3b3387;fill-opacity:1;fill-rule:nonzero;stroke:none;stroke-width:0.13333333"
     d="m 712.99065,767.14137 c -10.544,-29.36 -12.58,-60.48399 -16.37467,-91.30266 -1.12266,-9.09333 -2.304,-18.38533 -6.37066,-26.59467 -4.67067,-9.428 -12.044,-14.24266 -20.528,-16.728 -10.80134,-3.164 -23.40534,-2.55066 -34.53867,-2.86666 -10.55333,0.012 -18.588,39.94666 -28.716,59.508 -6.20667,11.988 -12.65733,22.62266 -16.68533,35.61066 -3.864,12.46533 -7.55333,25.14133 -9.616,38.04533 -3.11733,19.48534 -12.26133,33.31734 -2.89333,39.60534 0.848,0.25066 1.66533,0.49866 2.44133,0.74933 15.19067,4.88933 30.85733,8.364 46.74666,9.936 14.09467,1.396 28.36,1.268 42.40667,-0.57867 19.22933,-2.53066 37.832,-5.86533 54.50933,-16.48 -3.46,-9.63333 -6.92,-19.26933 -10.38133,-28.904"
     inkscape:connector-curvature="0" /><path
     id="path96"
     style="fill:#a0675c;fill-opacity:1;fill-rule:nonzero;stroke:none;stroke-width:0.13333333"
     d="m 629.05998,600.32138 c 5.41467,-18.32667 31.66934,-25.504 38.50667,-4.63067 2.05467,6.272 3.38667,12.95333 2.34133,19.46933 -1.04666,6.51734 -4.80133,12.86134 -10.75466,15.71067 l -0.10134,0.0467 c 0.29067,1.672 0.58134,3.34533 0.87067,5.01866 0.0627,0.36 0.11867,0.75734 -0.0747,1.06667 -0.22,0.352 -0.676,0.45733 -1.084,0.532 -1.99733,0.36533 -3.99333,0.72933 -5.98933,1.09467 -0.99067,0.18 -2.02133,0.35866 -2.98933,0.084 -2.11734,-0.60267 -3.07067,-3.08534 -3.23467,-5.28267 -0.0387,-0.524 -0.0507,-1.056 -0.06,-1.588 -12.00667,-3.68133 -20.97067,-19.54 -17.43067,-31.52133"
     inkscape:connector-curvature="0" /><path
     id="path98"
     style="fill:#292949;fill-opacity:1;fill-rule:nonzero;stroke:none;stroke-width:0.13333333"
     d="m 660.28798,568.31071 c 4.82134,-0.87866 9.1,3.68534 13.65067,6.00667 3.78667,1.932 8.02,2.33733 11.92933,3.91333 3.91067,1.57467 7.816,5.00267 8.04134,9.444 3.84,-2.16 8.004,-4.38266 12.40666,-3.68266 4.40534,0.70266 8.63867,5.79466 7.036,10.15866 -1.436,3.908 -6.43866,4.98134 -7.98933,8.832 -2.452,6.092 5.01067,15.18667 0.25467,19.32933 -1.144,0.996 -2.73467,1.27867 -3.856,2.30267 -1.39467,1.272 -1.78667,3.38933 -2.36267,5.28 -2.61733,8.57067 -10.98133,14.384 -19.456,13.52667 -5.32667,-2.28667 -9.676,-7.228 -11.74,-12.98267 -2.488,-6.93333 1.18133,-9.50267 1.60133,-16.10133 0.456,-7.21067 -2.07866,-14.75067 -6.78666,-20.18667 -3.064,-3.536 -7.38,-6.53066 -11.848,-6.81066 -1.81734,-0.11334 -1.19734,1.37733 -3.28,0.044 -0.89467,-0.57467 -2.16134,-2.808 -2.44534,-3.89067 4.74667,-4.07733 8.5,-14.02533 14.844,-15.18267"
     inkscape:connector-curvature="0" /><path
     id="path100"
     style="fill:#292949;fill-opacity:1;fill-rule:nonzero;stroke:none;stroke-width:0.13333333"
     d="m 608.19065,579.34005 c -2.476,0.77733 -5.19333,0.764 -7.54133,1.88533 -3.52533,1.68533 -3.18667,5.38933 -4.09467,8.64667 -1.004,3.60666 -2.47733,8.45333 -4.74133,11.30666 -1.632,2.056 -3.97067,3.27467 -5.98667,4.88533 -2.01733,1.612 -3.84266,3.95334 -3.70933,6.73467 0.128,2.636 1.97867,4.94667 2.324,7.57067 0.444,3.916 -0.16933,5.948 1.17067,9.92266 0.69333,2.04934 1.464,4.22 3.064,5.58134 2.108,1.79466 5.024,1.66266 7.57333,1.152 2.54667,-0.512 5.172,-1.30934 7.72533,-0.54267 5.54,1.664 4.69733,7.24 6.30667,11.836 2.44933,6.99467 10.77866,10.85333 16.96666,8.136 5.24667,-2.30533 8.12134,-8.57733 7.68267,-14.66133 -0.21867,-3.04667 -1.52667,-5.85067 -1.71333,-8.90134 -0.18134,-2.94133 1.34533,-7.07333 -1.4,-9.32266 -0.66934,-0.548 -1.512,-0.82134 -2.11734,-1.45067 -0.48933,-0.50933 -0.77466,-1.204 -0.96133,-1.90133 -0.64667,-2.41467 -0.19867,-5.08534 1.176,-6.996 0.988,-1.37334 2.43333,-2.4 3.012,-4.036 0.664,-1.876 0.02,-4.02134 -0.168,-6.06267 -0.45733,-4.936 2.08933,-9.87333 6.14667,-11.91866 2.67333,-1.34534 5.09466,-2.168 7.40533,-4.16 0.352,-0.30267 5.596,-5.24934 5.768,-4.224 -0.30133,-1.78667 -1.4,-3.32134 -2.508,-4.72667 -1.82133,-2.30933 -3.83333,-4.55333 -6.33733,-5.89067 -8.096,-4.324 -8.132,6.34134 -14.55734,5.148 -1.54933,-0.288 -2.75333,-1.66 -4.16666,-2.45733 -2.668,-1.50533 -5.86134,-0.832 -8.49867,0.44667 -2.636,1.28 -5.02933,3.12533 -7.82,4"
     inkscape:connector-curvature="0" /><path
     id="path102"
     style="fill:#f6f7f7;fill-opacity:1;fill-rule:nonzero;stroke:none;stroke-width:0.13333333"
     d="M 1034.4906,387.93338 V 306.72805 H 844.19998 1034.4906 v -27.704 l 6.0934,0.34267 -6.0934,108.56666 M 1012.316,277.78005 H 845.82531 l 0.52267,-9.31466 165.96802,9.31466"
     inkscape:connector-curvature="0" /><path
     id="path104"
     style="fill:#d6d3e0;fill-opacity:1;fill-rule:nonzero;stroke:none;stroke-width:0.13333333"
     d="m 1033.9786,397.05205 -194.23462,-10.90133 2.324,-41.42267 h 192.42262 v 43.20533 l -0.512,9.11867"
     inkscape:connector-curvature="0" /><path
     id="path106"
     style="fill:#282847;fill-opacity:1;fill-rule:nonzero;stroke:none;stroke-width:0.13333333"
     d="M 1034.4906,306.72805 H 844.19998 l 1.62533,-28.948 H 1012.316 l 22.1746,1.244 v 27.704"
     inkscape:connector-curvature="0" /><path
     id="path108"
     style="fill:#cf6c82;fill-opacity:1;fill-rule:nonzero;stroke:none;stroke-width:0.13333333"
     d="m 1034.4906,344.72805 v 0 H 842.06798 l 0.44,-7.832 h 156.78533 v -16.22266 h -155.876 l 0.78267,-13.94534 h 190.29062 v 38"
     inkscape:connector-curvature="0" /><path
     id="path110"
     style="fill:#ebebeb;fill-opacity:1;fill-rule:nonzero;stroke:none;stroke-width:0.13333333"
     d="M 999.29331,336.89605 H 842.50798 l 0.90933,-16.22266 h 155.876 v 16.22266"
     inkscape:connector-curvature="0" /><path
     id="path112"
     style="fill:#474ebb;fill-opacity:1;fill-rule:nonzero;stroke:none;stroke-width:0.13333333"
     d="m 1136.8946,394.48938 -288.23462,-16.176 9.44933,-168.36533 288.23469,16.176 -9.4494,168.36533"
     inkscape:connector-curvature="0" /><path
     id="path114"
     style="fill:#ffffff;fill-opacity:1;fill-rule:nonzero;stroke:none;stroke-width:0.13333333"
     d="m 1110.7666,268.17205 -216.72262,-12.16266 0.43066,-7.68267 216.72266,12.16267 -0.4307,7.68266"
     inkscape:connector-curvature="0" /><path
     id="path116"
     style="fill:#ffffff;fill-opacity:1;fill-rule:nonzero;stroke:none;stroke-width:0.13333333"
     d="m 1108.476,308.98405 -216.72269,-12.16266 0.432,-7.684 216.72269,12.16266 -0.432,7.684"
     inkscape:connector-curvature="0" /><path
     id="path118"
     style="fill:#ffffff;fill-opacity:1;fill-rule:nonzero;stroke:none;stroke-width:0.13333333"
     d="m 1106.1866,349.79472 -216.72262,-12.16267 0.43066,-7.684 216.72266,12.16267 -0.4307,7.684"
     inkscape:connector-curvature="0" /><path
     id="path120"
     style="fill:#252526;fill-opacity:1;fill-rule:nonzero;stroke:none;stroke-width:0.13333333"
     d="m 965.94264,862.54137 0.96667,8.936 -16.904,10.86933 -9.90267,-7.96933 7.96934,-9.90266 16.904,-10.868 0.96666,8.93466"
     inkscape:connector-curvature="0" /><path
     id="path122"
     style="fill:#252526;fill-opacity:1;fill-rule:nonzero;stroke:none;stroke-width:0.13333333"
     d="m 925.38264,860.37204 0.96667,8.93466 -16.904,10.87067 -9.90267,-7.97067 7.96934,-9.90133 16.90533,-10.86933 0.96533,8.936"
     inkscape:connector-curvature="0" /><path
     id="path124"
     style="fill:#252526;fill-opacity:1;fill-rule:nonzero;stroke:none;stroke-width:0.13333333"
     d="m 997.71331,689.73204 -18.01867,80.04133 -11.07466,94.24534 -20.688,-1.93467 -8.40534,-228.79466 55.38667,1.00533 2.8,55.43733"
     inkscape:connector-curvature="0" /><path
     id="path126"
     style="fill:#252526;fill-opacity:1;fill-rule:nonzero;stroke:none;stroke-width:0.13333333"
     d="m 891.66131,684.83738 -2.32533,77.69733 15.44933,99.54933 21.564,-2.25333 2.96,-102.888 15.38133,-70.51867 5.16267,-46.16 -46.11733,-5.43866 -12.07467,50.012"
     inkscape:connector-curvature="0" /><path
     id="path128"
     style="fill:#8cabef;fill-opacity:1;fill-rule:nonzero;stroke:none;stroke-width:0.13333333"
     d="m 928.14264,475.81205 49.68267,-1.18667 28.80669,53.57333 -10.23869,50.17867 -1.82267,60.05066 -70.872,0.968 -23.31866,-3.78666 6.192,-64.16267 -3.54934,-85.708 25.12,-9.92666"
     inkscape:connector-curvature="0" /><path
     id="path130"
     style="fill:#e1cfb5;fill-opacity:1;fill-rule:nonzero;stroke:none;stroke-width:0.13333333"
     d="m 982.61598,603.47471 0.26933,8.38133 -14.792,5.384 -8.524,-6.46 -0.005,-9.75466 8.23066,-0.45867 0.25734,-2.14666 2.696,-1.732 11.868,6.78666"
     inkscape:connector-curvature="0" /><path
     id="path132"
     style="fill:#8cabef;fill-opacity:1;fill-rule:nonzero;stroke:none;stroke-width:0.13333333"
     d="m 979.47331,478.32005 55.02399,63.3 2.688,27.72533 -54.27332,42.84666 -9.73734,-14.09199 35.09996,-37.476 -34.00396,-33.28934 5.20267,-49.01466"
     inkscape:connector-curvature="0" /><path
     id="path134"
     style="fill:#8cabef;fill-opacity:1;fill-rule:nonzero;stroke:none;stroke-width:0.13333333"
     d="m 926.34931,508.27338 -25.87867,51.73467 -27.90266,5.54533 -49.964,-2.12933 0.948,-23.89067 h 51.232 l 28.92933,-53.79467 22.636,22.53467"
     inkscape:connector-curvature="0" /><path
     id="path136"
     style="fill:#eac2a7;fill-opacity:1;fill-rule:nonzero;stroke:none;stroke-width:0.13333333"
     d="m 931.25331,434.18538 c 7.49067,-21.77466 36.23733,-13.61466 42.164,5.77467 3.86533,12.64667 -5.90267,29.06 -19.00667,32.692 -0.0573,0.49866 -0.10266,0.96266 -0.104,1.35733 -0.008,2.03067 -0.25866,4.032 -0.55866,6.06133 -0.112,0.756 -11.58267,-1.448 -12.86134,-1.7 -0.44666,-0.088 -0.94666,-0.20933 -1.188,-0.58533 -0.46133,-0.72 0.29067,-2.84133 0.37467,-3.64 0.0987,-0.94533 0.19733,-1.88933 0.296,-2.83467 -6.46267,-3.15466 -10.54267,-9.87599 -11.68133,-16.71733 -1.14534,-6.87333 0.31466,-13.864 2.56533,-20.408"
     inkscape:connector-curvature="0" /><path
     id="path138"
     style="fill:#ececec;fill-opacity:1;fill-rule:nonzero;stroke:none;stroke-width:0.13333333"
     d="m 963.12931,475.52805 -15.41333,21.784 -7.24534,-0.59334 -12.07733,-22.09333 34.736,0.90267"
     inkscape:connector-curvature="0" /><path
     id="path140"
     style="fill:#292949;fill-opacity:1;fill-rule:nonzero;stroke:none;stroke-width:0.13333333"
     d="m 926.08398,416.12138 c -0.0387,-0.36133 -0.0747,-0.72266 -0.112,-1.084 -0.11734,-1.128 -0.22134,-2.328 0.28266,-3.34266 0.80267,-1.612 2.78134,-2.15867 4.27467,-3.164 3.66133,-2.46267 4.248,-7.56934 6.75867,-11.19867 4.82666,-6.97733 10.58533,-2.91733 16.992,-2.16 7.364,0.87067 12.644,-1.63867 19.12266,2.972 5.236,3.728 11.71067,7.216 15.21867,12.87867 6.10267,9.856 5.868,23.272 -0.57733,32.908 -1.44534,2.16133 -3.164,4.12933 -4.964,6.00666 -3.728,3.88267 -8.192,8.68267 -13.24,10.048 -0.0293,-4.492 4.34666,-18.568 0.96933,-22.32 -3.36667,-3.73733 -8.368,-3.43466 -12.684,-5.208 -3.98933,-1.64 -7.15733,-6.3 -11.37067,-7.11333 -4.66666,-0.9 -19.19333,5.04667 -20.144,-4.12933 -0.176,-1.69734 -0.352,-3.396 -0.52666,-5.09334"
     inkscape:connector-curvature="0" /><path
     id="path142"
     style="fill:#3b3387;fill-opacity:1;fill-rule:nonzero;stroke:none;stroke-width:0.13333333"
     d="m 939.63198,628.24004 40.184,-37.26533 -113.42667,-36.05733 -43.78533,37.61867 117.028,35.70399"
     inkscape:connector-curvature="0" /><path
     id="path144"
     style="fill:#5d66d3;fill-opacity:1;fill-rule:nonzero;stroke:none;stroke-width:0.13333333"
     d="m 939.63198,628.24004 -117.028,-35.70399 v -93.112 l 117.028,35.70266 v 93.11333"
     inkscape:connector-curvature="0" /><path
     id="path146"
     style="fill:#e1cfb5;fill-opacity:1;fill-rule:nonzero;stroke:none;stroke-width:0.13333333"
     d="m 1040.5133,399.99605 -14.6973,-10.27467 2.0906,-9.37066 14.8974,5.136 7.1893,4.68533 v 5.196 l -9.48,4.628"
     inkscape:connector-curvature="0" /><path
     id="path148"
     style="fill:#323643;fill-opacity:1;fill-rule:nonzero;stroke:none;stroke-width:0.13333333"
     d="m 1180.1386,796.26271 c 1.5174,-1.66934 3.288,-2.58 5.2867,-2.26667 1.9227,0.30267 3.6493,1.604 4.4413,3.34667 0.5414,1.18666 0.6547,2.51066 0.7627,3.80533 0.5533,6.70533 0.5027,22.62133 -8.428,24.91333 -3.752,0.96267 -6.856,-1.704 -7.8573,-5.07466 -1.5107,-5.076 0.7253,-19.14 5.7946,-24.724"
     inkscape:connector-curvature="0" /><path
     id="path150"
     style="fill:#eac2a7;fill-opacity:1;fill-rule:nonzero;stroke:none;stroke-width:0.13333333"
     d="m 1176.964,695.13071 0.4666,40.89066 c -0.5426,18.16134 2.2934,36.42534 1.7494,54.58934 -0.1254,4.176 -1.2134,8.58266 -0.1614,12.72133 1.0294,4.04933 4.32,4.76533 7.6974,2.71467 4.5253,-2.74667 3.796,-9.16267 4.5493,-13.844 2.0707,-12.86134 4.4987,-25.664 6.66,-38.50934 1.06,-6.29866 -1.124,-15.124 -0.6493,-21.49866 l 6.6066,-34.268 -26.9186,-2.796"
     inkscape:connector-curvature="0" /><path
     id="path152"
     style="fill:#babcbe;fill-opacity:1;fill-rule:nonzero;stroke:none;stroke-width:0.13333333"
     d="m 1223.684,629.06138 -17.7974,79.05333 -3.7813,74.65466 -28.2187,-0.632 -7.6733,-208.82399 54.704,0.99333 2.7667,54.75467"
     inkscape:connector-curvature="0" /><path
     id="path154"
     style="fill:#323643;fill-opacity:1;fill-rule:nonzero;stroke:none;stroke-width:0.13333333"
     d="m 1139.7773,794.77737 c 1.5827,-1.58266 3.3853,-2.38933 5.3653,-1.95733 1.9014,0.41733 3.568,1.82 4.2827,3.61067 0.488,1.22 0.5453,2.552 0.5973,3.85466 0.2654,6.74267 -0.4653,22.668 -9.464,24.43467 -3.7813,0.74267 -6.7613,-2.10933 -7.616,-5.54 -1.288,-5.17067 1.5414,-19.11467 6.8347,-24.40267"
     inkscape:connector-curvature="0" /><path
     id="path156"
     style="fill:#eac2a7;fill-opacity:1;fill-rule:nonzero;stroke:none;stroke-width:0.13333333"
     d="m 1154.6506,700.86938 -2.3946,40.82533 c -0.1947,11.344 -1.7067,22.60133 -2.8814,33.87066 -1.0906,10.46534 0.6067,21.368 -4.8626,30.88934 -1.716,2.984 -5.184,4.97066 -7.6054,1.34533 -1.8693,-2.796 -0.76,-7.45733 -1.1173,-10.62933 -1.4627,-12.944 -3.284,-25.84534 -4.8387,-38.77734 -0.7613,-6.34 1.8374,-15.05466 1.6627,-21.444 l -4.9827,-34.53866 27.02,-1.54133"
     inkscape:connector-curvature="0" /><path
     id="path158"
     style="fill:#babcbe;fill-opacity:1;fill-rule:nonzero;stroke:none;stroke-width:0.13333333"
     d="m 1118.94,624.22671 -2.296,76.74 12.0426,77.60133 28.7054,0.85867 -1.2667,-83.98533 15.188,-69.64667 5.1,-45.59066 -45.548,-5.372 -11.9253,49.39466"
     inkscape:connector-curvature="0" /><path
     id="path160"
     style="fill:#353a85;fill-opacity:1;fill-rule:nonzero;stroke:none;stroke-width:0.13333333"
     d="m 1154.972,417.78138 49.0693,-1.17066 28.4493,52.91199 -10.112,49.56 -1.8,59.308 -69.9946,0.95467 -23.032,-3.73867 6.1146,-63.37066 -3.2013,-77.32667 24.5067,-17.128"
     inkscape:connector-curvature="0" /><path
     id="path162"
     style="fill:#353a85;fill-opacity:1;fill-rule:nonzero;stroke:none;stroke-width:0.13333333"
     d="m 1205.668,420.25872 39.8333,60.67066 -5.9853,33.79867 -61.6934,42.736 -11.6093,-10.15067 41.2453,-52.136 -1.6,-32.948 -0.1906,-41.97066"
     inkscape:connector-curvature="0" /><path
     id="path164"
     style="fill:#353a85;fill-opacity:1;fill-rule:nonzero;stroke:none;stroke-width:0.13333333"
     d="m 1157.9426,452.03738 -47.1466,17 -27.284,-6.71466 -47.148,-61.86134 16.42,-7.15066 49.5186,42.52266 44.82,-13.42933 10.82,29.63333"
     inkscape:connector-curvature="0" /><path
     id="path166"
     style="fill:#e0e0e1;fill-opacity:1;fill-rule:nonzero;stroke:none;stroke-width:0.13333333"
     d="m 1189.5253,417.50005 -15.2213,21.516 -7.1574,-0.58533 -11.928,-21.82 34.3067,0.88933"
     inkscape:connector-curvature="0" /><path
     id="path168"
     style="fill:#e1cfb5;fill-opacity:1;fill-rule:nonzero;stroke:none;stroke-width:0.13333333"
     d="m 1177.4653,549.89338 0.2653,8.276 -14.608,5.31733 -8.42,-6.37866 -0.01,-9.63467 8.1293,-0.45333 0.256,-2.11867 2.6613,-1.712 11.7227,6.704"
     inkscape:connector-curvature="0" /><path
     id="path170"
     style="fill:#e1cfb5;fill-opacity:1;fill-rule:nonzero;stroke:none;stroke-width:0.13333333"
     d="m 1171.544,374.31072 c -3.1827,-2.808 -6.8227,-3.31734 -10.8814,-3.348 -1.9173,-0.0147 -2.56,0.48133 -3.548,0.308 -0.4453,-0.0787 -0.96,-0.292 -1.692,-0.74667 -1.452,-0.90533 -2.748,-3.272 -3.428,-5.20133 -3.764,2.38133 -6.5026,6.68 -7.256,13.22666 -0.8213,7.11734 -0.8093,14.62534 1.6307,21.74667 2.4387,7.12133 7.6453,13.816 14.3987,16.45867 0.3933,0.15466 0.784,0.29066 1.1733,0.416 2.8933,0.944 5.6413,1.14 8.1907,0.732 l 8.512,-4.05867 c 0.4253,-0.36 0.836,-0.73867 1.2346,-1.13733 2.7974,-12.11334 -0.2346,-31.25467 -8.3346,-38.396"
     inkscape:connector-curvature="0" /><path
     id="path172"
     style="fill:#292949;fill-opacity:1;fill-rule:nonzero;stroke:none;stroke-width:0.13333333"
     d="m 1171.3666,365.81338 c 1.0467,0.52667 2.076,1.12534 3.0814,1.78934 -1.0054,-0.664 -2.0347,-1.26267 -3.0814,-1.78934 z m 57.6014,128.88267 c -0.9214,-0.83734 -1.8587,-1.676 -2.7987,-2.52134 0.6187,1.588 1.2347,3.19734 1.848,4.82934 0.612,1.63333 1.2213,3.288 1.8253,4.968 0.3894,1.08266 0.7667,2.18266 1.1307,3.3 -0.364,-1.11734 -0.7413,-2.21734 -1.1307,-3.3 -0.604,-1.68 -1.2133,-3.33467 -1.8253,-4.968 -0.6133,-1.632 -1.2293,-3.24134 -1.848,-4.82934 -6.7987,-6.10933 -13.7613,-12.56266 -15.6293,-21.35866 -0.896,-4.22667 -0.4947,-8.42933 0.404,-12.63733 1.444,-6.76134 4.1746,-13.53734 4.8866,-20.44267 1.2214,-11.82667 0.2574,-28.83067 -2.6306,-40.40133 -3.0867,-12.37067 -9.8187,-23.56667 -17.8947,-33.316 -9.796,-11.82667 -28.0067,-25.068 -40.9053,-9.57867 -0.1494,0.17733 -0.292,0.36 -0.4307,0.54533 -1.4013,-0.70133 -2.8707,-1.26933 -4.3827,-1.68533 -8.9093,7.50533 -11.2013,19.58533 -10.268,30.688 0.936,11.12267 6.5507,23.72533 3.3814,34.75867 -0.3014,1.05466 -0.696,2.10933 -0.688,3.20666 0.01,1.09734 0.5346,2.28134 1.5573,2.68 0.6227,0.24134 1.316,0.16 1.976,0.0747 5.452,-0.704 11.3867,-1.64933 15.0853,-5.71733 0.5507,-0.60534 0.9734,-1.21334 1.3094,-1.82 -0.388,-0.12667 -0.7774,-0.26134 -1.172,-0.416 -6.7534,-2.64267 -11.96,-9.33734 -14.3987,-16.45867 -2.44,-7.12133 -2.452,-14.62933 -1.6307,-21.74667 0.7534,-6.54666 3.492,-10.84533 7.256,-13.22666 0.68,1.92933 1.976,4.296 3.428,5.20133 0.732,0.45467 1.2467,0.668 1.6907,0.74667 0.9893,0.17333 1.6307,-0.32267 3.5493,-0.308 4.0587,0.0307 7.6987,0.54 10.8814,3.348 8.1,7.14133 11.132,26.28266 8.3346,38.396 7.6374,-7.61734 10.6987,-21.768 5.672,-32.344 -0.2866,-0.6 -0.5893,-1.18934 -0.9106,-1.764 0.3213,0.57466 0.624,1.164 0.9106,1.764 5.0267,10.576 1.9654,24.72666 -5.672,32.344 -0.049,0.21066 -0.099,0.41733 -0.1506,0.62266 -0.3467,1.368 -0.7654,2.644 -1.268,3.788 -0.2067,0.468 -0.4254,0.91467 -0.656,1.33867 -2.4907,4.53467 -6.3374,8.79467 -6.2414,13.96533 0.019,0.96134 0.18,1.9 0.4174,2.82667 0.436,1.68267 1.1333,3.32133 1.7573,4.952 6.6227,17.344 -0.6587,36.92266 -11.428,51.57733 -5.5147,7.50533 -12.7987,14.012 -15.9427,22.78 -0.5386,1.50533 -0.8773,3.11333 -1.028,4.75067 -0.732,7.9 2.9894,16.50533 10.596,17.79333 1.792,0.30267 3.6947,0.184 5.3414,0.94933 5.6213,2.61334 3.192,11.83067 7.3533,16.42534 2.6867,2.96933 7.2333,3.07333 11.2373,2.95866 1.3107,-0.0373 2.6947,-0.0973 3.792,-0.812 2.34,-1.52666 2.1147,-4.92533 2.8054,-7.632 1.248,-4.90266 6.144,-8.12266 11.0866,-9.20533 4.9427,-1.084 10.0734,-0.508 15.1334,-0.5 6.3213,0.0107 12.7853,-0.92667 18.36,-3.908 2.1893,-1.16933 4.22,-2.69467 5.9506,-4.488 -0.2133,-1.30533 -0.436,-2.60133 -0.6693,-3.88667 0.2333,1.28534 0.456,2.58134 0.6693,3.88667 2.6774,-2.776 4.628,-6.19733 5.2734,-9.98267 1.72,-10.092 -5.7294,-19.32133 -13.3,-26.21066"
     inkscape:connector-curvature="0" /></svg>